<svg viewBox="0 0 40 35" xmlns="http://www.w3.org/2000/svg" xmlns:xlink="http://www.w3.org/1999/xlink"><style>:root>svg{display:none}:root>svg:target{display:block}</style><svg viewBox="0 0 28 28" id="icon-account" xmlns="http://www.w3.org/2000/svg"><g fill="none" stroke="currentColor" stroke-miterlimit="10" id="account"><path stroke-width="2" d="M18.346 22.44c3.553-.432 6.154-3.521 6.154-7.793 0-5.166-3.805-10.091-8.5-11.001-2.526-.49-4.789.29-6.346 1.914"/><path stroke-width="2" d="M20.5 16.647c0 5.17-3.805 8.617-8.5 7.707-4.694-.912-8.5-5.836-8.5-11.005 0-5.166 3.806-8.614 8.5-7.703 4.695.911 8.5 5.835 8.5 11.001z"/><g stroke-width="1.5" stroke-linecap="round"><path d="M14.686 13.548s-.384-1.999-2.686-2.407c-1.535-.271-2.302.364-2.302 1.136 0 2.701 4.987 2.429 4.987 5.13 0 1.158-1.15 1.725-2.686 1.453-2.302-.408-2.686-2.792-2.686-2.792M12 10.726V8.825M12 21.175v-1.9"/></g><path stroke-width="2" stroke-linecap="round" d="M12 4L7 6.5M21 21.5L16 24"/></g></svg><svg viewBox="0 0 28 28" id="icon-account-group" xmlns="http://www.w3.org/2000/svg"><path fill="none" stroke="currentColor" stroke-width="2" stroke-linecap="round" stroke-linejoin="round" stroke-miterlimit="10" d="M25 25l-5-12L4 9l5 12 16 4V10l-8-2-2-3-8-2v3" id="account_group"/></svg><svg viewBox="0 0 28 28" id="icon-all-investments" xmlns="http://www.w3.org/2000/svg"><g id="all_investments" fill="none" stroke="currentColor" stroke-width="2" stroke-linecap="round" stroke-linejoin="round" stroke-miterlimit="10"><path d="M7 6l18 4.5V23l-4 2-18-4.5V8l18 4.5v9M13 7V3.5L19 5v3.5"/></g></svg><svg viewBox="0 0 28 28" id="icon-application" xmlns="http://www.w3.org/2000/svg"><g id="application"><path class="adcircle" fill="#231F20" d="M25 22.039a2.122 2.122 0 0 1-2.115 2.115H5.115A2.12 2.12 0 0 1 3 22.039V5.961a2.12 2.12 0 0 1 2.115-2.115h17.77c1.163 0 2.115.952 2.115 2.115v16.078zm-15.96.423V8.217H4.691v13.822c0 .225.198.423.424.423H9.04zM23.309 8.217H10.733v14.245h12.151a.435.435 0 0 0 .424-.423V8.217z"/><circle class="adignore" fill="#FFF" cx="5.679" cy="6.171" r=".988"/><circle class="adignore" fill="#FFF" cx="9.041" cy="6.171" r=".987"/><circle class="adignore" fill="#FFF" cx="12.402" cy="6.171" r=".988"/></g></svg><svg viewBox="0 0 28 28" id="icon-avatar" xmlns="http://www.w3.org/2000/svg"><path class="aecircle" fill="currentColor" d="M13.983 25.359c-4.18 0-7.935-1.855-10.483-4.784.369-.588.965-1.17 1.922-1.633 1.268-.61 5.134-2.443 5.134-2.443.363-.089.571-1.681.571-1.681-.885-.945-1.198-1.5-1.895-3.267C8.833 10.53 8.9 9.66 8.9 8.423c0-.912-.172-1.215.053-2.019.763-2.724 2.695-3.764 4.958-3.764 2.264 0 4.193 1.034 4.959 3.755.228.808.056 1.112.056 2.027 0 1.234.066 2.103-.333 3.12-.688 1.759-.876 2.327-1.764 3.275 0 0 .011 1.619.282 1.681 0 0 3.978 1.803 5.42 2.443.976.436 1.592 1.007 1.969 1.595-2.552 2.951-6.317 4.823-10.517 4.823z" id="avatar"/></svg><svg viewBox="0 0 28 28" id="icon-browse-mode" xmlns="http://www.w3.org/2000/svg"><g id="browse_mode"><path fill="none" stroke="currentColor" stroke-width="2" stroke-linecap="round" stroke-linejoin="round" stroke-miterlimit="10" d="M23 17c0 .55-.45 1-1 1H6c-.55 0-1-.45-1-1V7c0-.55.45-1 1-1h16c.55 0 1 .45 1 1v10zM5 22h18"/></g></svg><svg viewBox="0 0 28 28" id="icon-calendar" xmlns="http://www.w3.org/2000/svg"><g id="calendar"><path class="agcircle" fill="currentColor" d="M24 6v17H4V6h20m0-2H4a2 2 0 0 0-2 2v17a2 2 0 0 0 2 2h20a2 2 0 0 0 2-2V6a2 2 0 0 0-2-2z"/><path fill="none" stroke="currentColor" stroke-width="2" stroke-linecap="round" stroke-linejoin="round" stroke-miterlimit="10" d="M6 3v4M10 3v4M14 3v4M18 3v4M22 3v4"/><path class="agcircle" fill="currentColor" d="M8 10a1.5 1.5 0 1 0-.001 2.999A1.5 1.5 0 0 0 8 10zM12 10a1.5 1.5 0 1 0-.001 2.999A1.5 1.5 0 0 0 12 10zM16 10a1.5 1.5 0 1 0-.001 2.999A1.5 1.5 0 0 0 16 10zM20 10a1.5 1.5 0 1 0-.001 2.999A1.5 1.5 0 0 0 20 10zM8 14a1.5 1.5 0 1 0-.001 2.999A1.5 1.5 0 0 0 8 14zM12 14a1.5 1.5 0 1 0-.001 2.999A1.5 1.5 0 0 0 12 14zM16 14a1.5 1.5 0 1 0-.001 2.999A1.5 1.5 0 0 0 16 14zM20 14a1.5 1.5 0 1 0-.001 2.999A1.5 1.5 0 0 0 20 14zM8 18a1.5 1.5 0 1 0-.001 2.999A1.5 1.5 0 0 0 8 18zM12 18a1.5 1.5 0 1 0-.001 2.999A1.5 1.5 0 0 0 12 18zM16 18a1.5 1.5 0 1 0-.001 2.999A1.5 1.5 0 0 0 16 18zM20 18a1.5 1.5 0 1 0-.001 2.999A1.5 1.5 0 0 0 20 18z"/></g></svg><svg viewBox="0 0 16 16" id="icon-calendar-sm" xmlns="http://www.w3.org/2000/svg"><g id="calendar_sm"><path class="ahcircle" fill="currentColor" d="M12 6v6H4V6h8m0-2H4a2 2 0 0 0-2 2v6a2 2 0 0 0 2 2h8a2 2 0 0 0 2-2V6a2 2 0 0 0-2-2z"/><path fill="none" stroke="currentColor" stroke-width="2" stroke-linecap="round" stroke-linejoin="round" stroke-miterlimit="10" d="M6 3v4M10 3v4"/></g></svg><svg viewBox="0 0 28 28" id="icon-call-note" xmlns="http://www.w3.org/2000/svg"><g id="call_note" fill="none" stroke="currentColor" stroke-width="2" stroke-linecap="round" stroke-linejoin="round" stroke-miterlimit="10"><path d="M7 19l-4 1V5l8-2 4 3v10M12 8.5L6 10M12 12.5L6 14M19.853 11.021c-1.054 1.051-1.334 2.472-.633 3.174.701.703 2.122.418 3.173-.633 1.053-1.054 1.337-2.475.636-3.179-.703-.698-2.125-.414-3.176.638zM11.022 19.852c1.05-1.053 2.471-1.333 3.173-.632.703.701.417 2.121-.633 3.172-1.054 1.055-2.476 1.339-3.176.637-.702-.702-.418-2.126.636-3.177z"/><path d="M13.398 18.836c1.697-.002 2.378 2.377 2.378 2.377l5.437-5.438s-2.378-.68-2.377-2.377"/><path d="M10.387 23.028c2.038 2.038 4.391 3.938 10.484-2.156 6.095-6.095 4.194-8.447 2.157-10.488"/></g></svg><svg viewBox="0 0 16 16" id="icon-call-note-sm" xmlns="http://www.w3.org/2000/svg"><g fill="none" stroke="currentColor" stroke-width="2" stroke-linecap="round" stroke-linejoin="round" stroke-miterlimit="10" id="call_note_sm"><path d="M11.686 3.255c-.469-.465-1.417-.276-2.118.426-.701.7-.889 1.648-.421 2.115M3.258 11.685c-.469-.467-.278-1.417.425-2.118.699-.701 1.646-.888 2.114-.421M6.09 9.715l3.625-3.626"/><path d="M3.258 11.685c1.358 1.358 2.927 2.625 6.989-1.438 4.063-4.063 2.796-5.631 1.438-6.992"/></g></svg><svg viewBox="0 0 28 28" id="icon-call-us" xmlns="http://www.w3.org/2000/svg"><g fill="none" stroke="currentColor" stroke-width="2" stroke-linecap="round" stroke-linejoin="round" stroke-miterlimit="10" id="call_us"><path d="M17.139 5.36c-1.405 1.402-1.778 3.296-.848 4.233.936.938 2.83.558 4.232-.845 1.405-1.405 1.782-3.298.846-4.238-.934-.931-2.832-.553-4.23.85zM5.363 17.135c1.398-1.404 3.292-1.777 4.229-.842.938.934.559 2.827-.843 4.229-1.405 1.406-3.302 1.785-4.236.849-.937-.935-.556-2.832.85-4.236z"/><path d="M8.531 15.78c2.264-.002 3.169 3.171 3.169 3.171l7.25-7.252s-3.171-.904-3.17-3.168"/><path d="M4.513 21.372c2.719 2.717 5.856 5.25 13.981-2.876 8.127-8.126 5.594-11.263 2.875-13.985"/></g></svg><svg viewBox="0 0 12 12" id="icon-check" xmlns="http://www.w3.org/2000/svg"><path fill="none" stroke="currentColor" stroke-width="2" stroke-linecap="round" stroke-linejoin="round" stroke-miterlimit="10" d="M10.5 3l-6 6-3-3" id="labels"/></svg><svg viewBox="0 0 28 28" id="icon-check-circle" xmlns="http://www.w3.org/2000/svg"><g id="check" fill="none" stroke="currentColor" stroke-width="2" stroke-linecap="round" stroke-linejoin="round" stroke-miterlimit="10"><circle cx="14" cy="14" r="8"/><path d="M18 12l-5 5-3-3"/></g></svg><svg viewBox="0 0 20 15" id="icon-class-filter" xmlns="http://www.w3.org/2000/svg"><g id="Symbols" fill="none" fill-rule="evenodd"><g id="class_filter" transform="translate(-6 -5)" stroke-width="2" stroke="currentColor"><g id="Dynamic-group"><g id="6:6" transform="translate(7 6)"><path d="M5.5 7H0" id="Line" stroke-linecap="round" transform="rotate(180 2.75 7)"/><path d="M3.5 12H0" id="Line" stroke-linecap="round" transform="rotate(180 1.75 12)"/><path d="M7.5 2H0" id="Line" stroke-linecap="round" transform="rotate(180 3.75 2)"/><circle id="Oval-2" transform="scale(-1 1) rotate(-10 0 167.552)" cx="14.265" cy="4.504" r="3.667"/><path d="M12.013 8.624l-2.524 3.604" id="Line" stroke-linecap="round" stroke-linejoin="round"/></g></g></g></g></svg><svg viewBox="0 0 28 28" id="icon-close-or-clear" xmlns="http://www.w3.org/2000/svg"><g id="close_or_clear" fill="none" stroke="currentColor" stroke-width="2" stroke-linecap="round" stroke-linejoin="round" stroke-miterlimit="10"><circle cx="14" cy="14" r="8"/><path d="M17 11l-6 6M17 17l-6-6"/></g></svg><svg viewBox="0 0 16 16" id="icon-co-own" xmlns="http://www.w3.org/2000/svg"><g id="co-own"><path class="apcircle" fill="currentColor" d="M10.13 12.63a.985.985 0 0 1 .22-1.39.996.996 0 0 1 1.4.22c.319.439.22 1.069-.22 1.399-.181.12-.391.19-.591.19a.993.993 0 0 1-.809-.419zm2.309-2.13c-.52-.17-.81-.74-.64-1.26.171-.52.741-.81 1.261-.64.53.17.82.74.65 1.26h-.01c-.141.42-.53.69-.95.69-.101 0-.2-.021-.311-.05zm-.629-3.73c-.17-.52.12-1.09.641-1.26a1 1 0 0 1 1.26.65c.17.52-.12 1.09-.641 1.26-.109.03-.21.04-.31.04a.997.997 0 0 1-.95-.69zm-1.451-2c-.439-.33-.54-.95-.22-1.399.33-.44.96-.54 1.4-.21.45.319.54.949.22 1.39a1 1 0 0 1-.81.41 1.03 1.03 0 0 1-.59-.191z"/><path fill="none" stroke="currentColor" stroke-width="2" stroke-linecap="round" stroke-linejoin="round" stroke-miterlimit="10" d="M8 3v10c-2.762 0-5-2.238-5-5s2.238-5 5-5z"/></g></svg><svg viewBox="0 0 22 22" id="icon-collapse" xmlns="http://www.w3.org/2000/svg"><g id="collapse" fill="none" stroke="currentColor" stroke-width="2" stroke-linecap="round" stroke-linejoin="round" stroke-miterlimit="10"><circle cx="11" cy="11" r="8"/><path d="M15.242 11H6.758"/></g></svg><svg viewBox="0 0 28 28" id="icon-collapse-sidebar" xmlns="http://www.w3.org/2000/svg"><g id="collapse_sidebar"><path class="arcircle" fill="currentColor" d="M9 4v20H4V4h5m0-2H4a2 2 0 0 0-2 2v20a2 2 0 0 0 2 2h5a2 2 0 0 0 2-2V4a2 2 0 0 0-2-2zM13 4c-.26 0-.521-.11-.71-.29-.181-.19-.29-.45-.29-.71s.109-.521.29-.71c.37-.37 1.05-.37 1.42 0a1 1 0 0 1-.01 1.42c-.18.18-.44.29-.7.29zM20 3c0-.55.439-1 1-1 .55 0 1 .45 1 1s-.45 1-1 1c-.561 0-1-.45-1-1zm-4 0c0-.55.45-1 1-1s1 .45 1 1-.45 1-1 1-1-.45-1-1zM25 4c-.26 0-.521-.11-.71-.29-.181-.19-.29-.45-.29-.71s.109-.521.29-.71c.37-.36 1.04-.37 1.42 0 .18.189.29.439.29.71 0 .27-.11.52-.29.71-.19.18-.45.29-.71.29zM24 21.33c0-.55.45-1 1-1s1 .45 1 1-.45 1-1 1-1-.45-1-1zm0-3.66c0-.561.45-1 1-1s1 .439 1 1c0 .55-.45 1-1 1s-1-.45-1-1zM24 14c0-.55.45-1 1-1s1 .45 1 1-.45 1-1 1-1-.45-1-1zm0-3.67c0-.55.45-1 1-1s1 .45 1 1-.45 1-1 1-1-.45-1-1zm0-3.66c0-.561.45-1 1-1s1 .439 1 1c0 .55-.45 1-1 1s-1-.45-1-1zM25 26c-.271 0-.521-.11-.71-.29-.181-.19-.29-.45-.29-.71 0-.271.109-.521.29-.71.37-.37 1.05-.37 1.42 0 .18.189.29.439.29.71 0 .26-.11.52-.29.71-.19.18-.45.29-.71.29zM20 25c0-.55.45-1 1-1s1 .45 1 1-.45 1-1 1-1-.45-1-1zm-4 0c0-.55.45-1 1-1s1 .45 1 1-.45 1-1 1-1-.45-1-1zM13 26c-.271 0-.521-.11-.71-.29-.181-.19-.29-.45-.29-.71 0-.271.109-.521.29-.71.37-.37 1.05-.37 1.42 0 .18.189.29.439.29.71 0 .26-.11.52-.29.71-.19.18-.45.29-.71.29z"/><g fill="none" stroke="currentColor" stroke-width="2" stroke-linecap="round" stroke-linejoin="round" stroke-miterlimit="10"><path d="M21.5 14h-8M17.5 18l-4-4 4-4"/></g></g></svg><svg viewBox="0 0 16 16" id="icon-comp-viol" xmlns="http://www.w3.org/2000/svg"><g id="comp_viol" fill="none" stroke="currentColor" stroke-width="2" stroke-linecap="round" stroke-linejoin="round" stroke-miterlimit="10"><circle cx="8" cy="8" r="5"/><path d="M11.5 4.5l-7 7"/></g></svg><svg viewBox="0 0 16 16" id="icon-comp-warn" xmlns="http://www.w3.org/2000/svg"><path fill="none" stroke="currentColor" stroke-width="2" stroke-linecap="round" stroke-linejoin="round" stroke-miterlimit="10" d="M3 12.5l5-8.661 5 8.661z" id="comp_warn"/></svg><svg viewBox="0 0 28 28" id="icon-compliance" xmlns="http://www.w3.org/2000/svg"><g id="compliance" fill="none" stroke="currentColor" stroke-width="2" stroke-linecap="round" stroke-linejoin="round" stroke-miterlimit="10"><path d="M15.507 5.498a9.496 9.496 0 0 0-3.007-.493c-5.247 0-9.5 4.253-9.5 9.5s4.253 9.5 9.5 9.5c5.069 0 9.198-3.973 9.474-8.974"/><path d="M6.5 13.505l3-3 3 3 9.5-9.5 3 3-12.5 12.5z"/></g></svg><svg viewBox="0 0 28 28" id="icon-consolidated" xmlns="http://www.w3.org/2000/svg"><g id="consolidated" fill="none" stroke="currentColor" stroke-miterlimit="10"><g stroke-width="2"><path d="M20.312 23.431C23.02 23.1 25 20.746 25 17.491c0-3.889-2.827-7.591-6.345-8.348"/><path stroke-linecap="round" d="M22.333 22.713l-3.808 1.903"/><path d="M9.479 18.889c-.045-.009-.089-.023-.134-.033.865 2.983 3.279 5.479 6.134 6.033 3.575.695 6.474-1.932 6.474-5.871 0-2.537-1.208-4.993-3.022-6.608"/></g><path stroke-width="2" d="M14.312 17.432C17.02 17.101 19 14.747 19 11.492c0-3.936-2.896-7.689-6.475-8.381-1.925-.373-3.65.222-4.836 1.459"/><path stroke-width="2" d="M15.952 13.018c0 3.939-2.897 6.567-6.474 5.871C5.899 18.195 3 14.445 3 10.506c0-3.938 2.899-6.564 6.479-5.87 3.576.693 6.473 4.446 6.473 8.382z"/><g stroke-linecap="round"><path d="M11.523 10.655s-.295-1.524-2.045-1.835c-1.172-.205-1.754.28-1.754.867 0 2.058 3.8 1.853 3.8 3.909 0 .881-.877 1.314-2.045 1.106-1.755-.311-2.048-2.128-2.048-2.128M9.479 8.506V7.057M9.479 16.466v-1.445"/></g><path stroke-width="2" stroke-linecap="round" d="M9.479 3.381L5.665 5.286M16.333 16.713l-3.808 1.904"/></g></svg><svg viewBox="0 0 28 28" id="icon-documents" xmlns="http://www.w3.org/2000/svg"><g id="documents" fill="none" stroke="currentColor" stroke-width="2" stroke-linecap="round" stroke-linejoin="round" stroke-miterlimit="10"><path d="M19 10.5l2 .5M19 13.5l2 .5M19 16.5l2 .5M16 25V8.5l-8-2-4 3V22z"/><path d="M20 21.5l4 1V6l-8-2-4 3M7 12l6 1.5M7 15l6 1.5M7 18l6 1.5"/></g></svg><svg viewBox="0 0 16 16" id="icon-drill-down-arrow" xmlns="http://www.w3.org/2000/svg"><path fill="none" stroke="currentColor" stroke-width="2" stroke-linecap="round" stroke-linejoin="round" stroke-miterlimit="10" d="M6 13l5-5-5-5" id="drill_down_arrow"/></svg><svg viewBox="0 0 16 16" id="icon-dropdown-menu" xmlns="http://www.w3.org/2000/svg"><path fill="none" stroke="currentColor" stroke-width="2" stroke-linecap="round" stroke-linejoin="round" stroke-miterlimit="10" d="M3 6l5 5 5-5" id="dropdown_menu"/></svg><svg viewBox="0 0 28 28" id="icon-edit" xmlns="http://www.w3.org/2000/svg"><g id="edit" fill="none" stroke="currentColor" stroke-width="2" stroke-linecap="round" stroke-linejoin="round" stroke-miterlimit="10"><path d="M20 4L5 19l-2 6 6-2L24 8M24.172 7.828a2.83 2.83 0 0 0-4-4M22 10l-4-4M11 21l-4-4M18.901 4.568c-1.026-1.026-3.521-.195-5.574 1.857S10.443 10.974 11.469 12"/></g></svg><svg viewBox="0 0 28 28" id="icon-ellipsis" xmlns="http://www.w3.org/2000/svg"><g id="labels" font-family="'Lato-Bold'" font-size="11.5"><text transform="translate(-60.8 -174)">Resizer - S</text><text transform="translate(-65.326 -126)">Resizer - M</text><text transform="translate(-60.577 -78)">Resizer - L</text><text transform="translate(-122.033 -30)">Workspace dropdown</text><text transform="translate(-100.861 17)">Pagination ellipsis</text></g><path fill="none" stroke="currentColor" stroke-width="2" stroke-linecap="round" stroke-linejoin="round" stroke-miterlimit="10" d="M3-91h22v18H3z" id="size_l"/><g id="size_m"><path fill="none" stroke="currentColor" stroke-width="2" stroke-linecap="round" stroke-linejoin="round" stroke-miterlimit="10" d="M3-139h22v18H3zM3-127h22"/><path d="M3-127h22v6H3z"/></g><g id="size_s"><path fill="none" stroke="currentColor" stroke-width="2" stroke-linecap="round" stroke-linejoin="round" stroke-miterlimit="10" d="M3-187h22v18H3zM3-175h22M3-181h22"/><path d="M3-181h22v12H3z"/><path fill="none" stroke="currentColor" stroke-width="2" stroke-linecap="round" stroke-linejoin="round" stroke-miterlimit="10" d="M21.5-39.5l3 3-10 10-10-10 3-3 7 7z"/><circle class="bacircle" fill="currentColor" cx="7" cy="14" r="2"/><circle class="bacircle" fill="currentColor" cx="14" cy="14" r="2"/><circle class="bacircle" fill="currentColor" cx="21" cy="14" r="2"/></g></svg><svg viewBox="0 0 28 28" id="icon-email" xmlns="http://www.w3.org/2000/svg"><g id="email" fill="none" stroke="currentColor" stroke-width="2" stroke-linejoin="round" stroke-miterlimit="10"><path stroke-linecap="round" d="M21.5 8h-15A2.5 2.5 0 0 0 4 10.5v8.75a2.5 2.5 0 0 0 2.5 2.5h15a2.5 2.5 0 0 0 2.5-2.5V10.5A2.5 2.5 0 0 0 21.5 8z"/><path stroke-linecap="square" d="M5.25 10.5l8.438 5.625 8.437-5.625"/><path stroke-linecap="square" d="M5.25 10.5l8.438 5.625 8.437-5.625"/></g></svg><svg viewBox="0 0 28 28" id="icon-email-note" xmlns="http://www.w3.org/2000/svg"><g id="email_note"><path fill="none" stroke="currentColor" stroke-width="2" stroke-linecap="round" stroke-linejoin="round" stroke-miterlimit="10" d="M7 19l-4 1V5l8-2 4 3v7M12 8.5L6 10M12 12.5L6 14"/><path class="bccircle" fill="currentColor" d="M24 17v7H12v-7h12m0-2H12a2 2 0 0 0-2 2v7a2 2 0 0 0 2 2h12a2 2 0 0 0 2-2v-7a2 2 0 0 0-2-2z"/><path fill="none" stroke="currentColor" stroke-width="2" stroke-linecap="round" stroke-linejoin="round" stroke-miterlimit="10" d="M12 17l6 4 6-4"/></g></svg><svg viewBox="0 0 16 16" id="icon-email-note-sm" xmlns="http://www.w3.org/2000/svg"><g id="email_note_sm"><path class="bdcircle" fill="currentColor" d="M12 5v6H4V5h8m0-2H4a2 2 0 0 0-2 2v6a2 2 0 0 0 2 2h8a2 2 0 0 0 2-2V5a2 2 0 0 0-2-2z"/><path fill="none" stroke="currentColor" stroke-width="2" stroke-linecap="round" stroke-linejoin="round" stroke-miterlimit="10" d="M4 5l4 4 4-4"/></g></svg><svg viewBox="0 0 28 28" id="icon-email-us" xmlns="http://www.w3.org/2000/svg"><path class="becircle" fill="currentColor" d="M24.203 21.83h-2.757l2.993-2.993a1.786 1.786 0 0 0 0-2.519L12.845 4.724a1.77 1.77 0 0 0-1.261-.521c-.47 0-.929.19-1.259.521l-6.763 6.764c-.337.336-.521.784-.521 1.26s.185.923.521 1.26l7.823 7.823H3.797a.985.985 0 0 0 0 1.968h20.406a.985.985 0 0 0 0-1.969zm-9.849-7.021L12.906 7.57l8.686 8.687-7.238-1.448zm7.767 3.561l-3.462 3.46h-4.488l-9.083-9.083 5.705-5.707 1.76 8.797c.077.392.38.695.771.772l8.797 1.761z" id="email_us"/></svg><svg viewBox="0 0 22 22" id="icon-expand" xmlns="http://www.w3.org/2000/svg"><g id="expand" fill="none" stroke="currentColor" stroke-width="2" stroke-linecap="round" stroke-linejoin="round" stroke-miterlimit="10"><circle cx="11" cy="11" r="8"/><path d="M15.242 11H6.758M11 15.243V6.758"/></g></svg><svg viewBox="0 0 28 28" id="icon-expand-sidebar" xmlns="http://www.w3.org/2000/svg"><g id="expand_sidebar"><path class="bgcircle" fill="currentColor" d="M24 4v20H4V4h20m0-2H4a2 2 0 0 0-2 2v20a2 2 0 0 0 2 2h20a2 2 0 0 0 2-2V4a2 2 0 0 0-2-2z"/><path class="bgcircle" fill="currentColor" d="M10 5c-.26 0-.521-.11-.71-.29C9.1 4.52 9 4.26 9 4s.1-.521.29-.71c.38-.37 1.04-.37 1.42 0 .189.189.29.45.29.71s-.11.52-.29.71c-.19.18-.45.29-.71.29zM9 20c0-.55.45-1 1-1s1 .45 1 1-.45 1-1 1-1-.45-1-1zm0-4c0-.561.45-1 1-1s1 .439 1 1c0 .55-.45 1-1 1s-1-.45-1-1zm0-4c0-.55.45-1 1-1s1 .45 1 1-.45 1-1 1-1-.45-1-1zm0-4c0-.55.45-1 1-1s1 .45 1 1-.45 1-1 1-1-.45-1-1zM10 25c-.271 0-.521-.11-.71-.29-.181-.19-.29-.45-.29-.71s.109-.521.29-.71c.37-.37 1.05-.37 1.42 0 .18.189.29.45.29.71s-.11.52-.29.71c-.19.18-.45.29-.71.29z"/><g fill="none" stroke="currentColor" stroke-width="2" stroke-linecap="round" stroke-linejoin="round" stroke-miterlimit="10"><path d="M13.5 14h8M17.5 10l4 4-4 4"/></g></g></svg><svg viewBox="0 0 28 28" id="icon-favourite" xmlns="http://www.w3.org/2000/svg"><path fill="none" stroke="currentColor" stroke-width="2" stroke-linecap="round" stroke-linejoin="round" stroke-miterlimit="10" d="M13.913 20.742l-6.798 3.573 1.298-7.569-5.5-5.361 7.602-1.105 3.398-6.887 3.399 6.887 7.601 1.105-5.5 5.361 1.298 7.569z" id="favourite"/></svg><svg viewBox="0 0 28 28" id="icon-female" xmlns="http://www.w3.org/2000/svg"><g id="female" fill="none" stroke="currentColor" stroke-width="2" stroke-linecap="round" stroke-linejoin="round" stroke-miterlimit="10"><circle cx="14" cy="6" r="3"/><path d="M17 13v-2h-6v1.998L7 22.5h3.999V25h6v-2.5H21z"/></g></svg><svg viewBox="0 0 28 28" id="icon-file-attachment" xmlns="http://www.w3.org/2000/svg"><g fill="none" stroke="currentColor" stroke-width="2" stroke-linecap="round" stroke-linejoin="round" stroke-miterlimit="10" id="file_attachment"><path d="M22.504 11.708a5.1 5.1 0 1 0-7.213-7.215M5.211 18.903a3.567 3.567 0 0 0 0 5.049 3.571 3.571 0 0 0 5.051.002M20.342 9.544a2.041 2.041 0 0 0-2.887-2.885M15.303 4.483l-9.752 9.75M22.516 11.698L10.25 23.964M17.465 6.647L5.199 18.913M20.352 9.534L10.25 19.636"/></g></svg><svg viewBox="0 0 28 28" id="icon-file-storage" xmlns="http://www.w3.org/2000/svg"><g id="file_storage" fill="none" stroke="currentColor" stroke-width="2" stroke-linecap="round" stroke-linejoin="round" stroke-miterlimit="10"><path d="M20 23l4-2V6L12 3 4 7M4 7v15l12 3M4 7l12 3M16 25V10M16 17.5l-12-3M8.5 19.5l2 .5M8.5 12l2 .5M16 10l4-2"/></g></svg><svg viewBox="0 0 28 28" id="icon-general-note" xmlns="http://www.w3.org/2000/svg"><g id="general_note" fill="none" stroke="currentColor" stroke-width="2" stroke-linecap="round" stroke-linejoin="round" stroke-miterlimit="10"><path d="M20 22L8 25V5l8-2 4 3zM17 9.5L11 11M17 13.5L11 15M17 17.5L11 19"/></g></svg><svg viewBox="0 0 16 16" id="icon-general-note-sm" xmlns="http://www.w3.org/2000/svg"><path fill="none" stroke="currentColor" stroke-width="2" stroke-linecap="round" stroke-linejoin="round" stroke-miterlimit="10" d="M12 13H4V3h5l3 3z" id="general_note_sm"/></svg><svg viewBox="0 0 28 28" id="icon-heatmap" xmlns="http://www.w3.org/2000/svg"><g id="heatmap" fill="none" stroke="currentColor" stroke-width="2" stroke-linecap="round" stroke-linejoin="round" stroke-miterlimit="10"><path d="M11.562 6.75C8.627 8.663 5.5 12.562 5.5 16.5a8.5 8.5 0 0 0 17 0c0-5.069-6.062-9.875-7.5-13.5 1.102 5.52-1 10.352-1 10.352s-2.209-3.257-2.438-6.602z"/><path d="M18 17.5c0 2-1.791 3.5-4 3.5s-4-1.5-4-3.5.5-3 .5-3 1.5 3 3.5 3 3.5-3 3.5-3 .5 1 .5 3z"/></g></svg><svg viewBox="0 0 28 28" id="icon-help" xmlns="http://www.w3.org/2000/svg"><g id="help"><circle fill="none" stroke="currentColor" stroke-width="2" stroke-linecap="round" stroke-linejoin="round" stroke-miterlimit="10" cx="14" cy="14" r="11"/><path fill="none" stroke="currentColor" stroke-width="2" stroke-linecap="round" stroke-linejoin="round" stroke-miterlimit="10" d="M10.5 11.1c0-1.988 1.566-3.6 3.5-3.6s3.5 1.611 3.5 3.6c0 2.701-3.5 3.15-3.5 4.5v.9"/><path class="bocircle" fill="currentColor" d="M14 19c-.83 0-1.5.67-1.5 1.5S13.17 22 14 22s1.5-.67 1.5-1.5S14.83 19 14 19z"/></g></svg><svg viewBox="0 0 16 16" id="icon-hide-password" xmlns="http://www.w3.org/2000/svg"><g id="hide_password" fill="none" stroke="currentColor" stroke-width="2" stroke-linecap="round" stroke-linejoin="round" stroke-miterlimit="10"><path d="M10.663 4.671C9.815 4.272 8.908 4 8 4 4.5 4 1 8 1 8s1.92 2.19 4.337 3.329M8.691 11.948C11.946 11.487 15 8 15 8s-.709-.803-1.799-1.688"/><path d="M10.255 5.182A2.744 2.744 0 0 0 8 4a2.75 2.75 0 0 0-1.036 5.295M12 3L4 13"/></g></svg><svg viewBox="0 0 28 28" id="icon-info" xmlns="http://www.w3.org/2000/svg"><g id="info"><circle fill="none" stroke="currentColor" stroke-width="2" stroke-linecap="round" stroke-linejoin="round" stroke-miterlimit="10" cx="14" cy="14" r="8"/><path class="bqcircle" fill="currentColor" d="M12.365 17.545l.826-.176v-3.932l-.914-.176V12.23h2.625v5.139l.82.176v1.025h-3.357v-1.025zm2.537-6.832h-1.711V9.43h1.711v1.283z"/></g></svg><svg viewBox="0 0 28 28" id="icon-irmql" xmlns="http://www.w3.org/2000/svg"><g id="irm_queries"><path fill="none" stroke="currentColor" stroke-width="2" stroke-linejoin="round" stroke-miterlimit="10" d="M24.832 12.842C25.886 7.406 21.895 3 15.907 3 9.926 3 4.223 7.406 3.17 12.842c-1.056 5.437 2.938 9.843 8.92 9.843 1.197 0 2.38-.183 3.52-.509 1.873.7 5.127 1.65 8.391 1.324-1.219-.914-2.25-2.939-2.871-4.385 1.882-1.703 3.239-3.888 3.702-6.273z"/><path fill="none" stroke="currentColor" stroke-width="2" stroke-linecap="round" stroke-linejoin="round" stroke-miterlimit="10" d="M11.365 10.228C11.641 8.444 13.267 7 15 7s2.916 1.444 2.641 3.228c-.372 2.422-3.572 2.824-3.758 4.034l-.124.807"/><path class="brcircle" fill="currentColor" d="M13.414 17.311c-.744 0-1.438.601-1.553 1.345C11.748 19.399 12.256 20 13 20s1.438-.601 1.551-1.345c.115-.744-.393-1.344-1.137-1.344z"/></g></svg><svg viewBox="0 0 28 28" id="icon-layers" xmlns="http://www.w3.org/2000/svg"><g id="layers" fill="none" stroke="currentColor" stroke-width="2" stroke-linecap="round" stroke-linejoin="round" stroke-miterlimit="10"><path d="M21.004 18.001L25 19l-10 5-12-3 4-1.999M21.004 12.001L25 13l-10 5-12-3 4-2M3 9l10-5 12 3-10 5z"/></g></svg><svg viewBox="0 0 28 28" id="icon-location" xmlns="http://www.w3.org/2000/svg"><g id="location" fill="none" stroke="currentColor" stroke-width="2" stroke-linecap="round" stroke-linejoin="round" stroke-miterlimit="10"><path d="M22.499 11.502a8.5 8.5 0 0 0-17 0c0 2.032.716 3.896 1.905 5.359l6.595 8.141 6.595-8.141a8.469 8.469 0 0 0 1.905-5.359z"/><circle cx="14" cy="11.5" r="4"/></g></svg><svg viewBox="0 0 16 16" id="icon-location-sm" xmlns="http://www.w3.org/2000/svg"><path fill="none" stroke="currentColor" stroke-width="2" stroke-linecap="round" stroke-linejoin="round" stroke-miterlimit="10" d="M11.863 6.863A3.862 3.862 0 1 0 5.002 9.3L8 13l2.998-3.7c.54-.665.865-1.513.865-2.437z" id="location_sm"/></svg><svg id="icon-locked" viewBox="0 0 18 18" xmlns="http://www.w3.org/2000/svg"><g id="locked__x28_notification_x29_"><path fill="none" stroke="currentColor" stroke-width="2" stroke-linecap="round" stroke-linejoin="round" stroke-miterlimit="10" d="M16.243 15.439a1.61 1.61 0 0 1-1.609 1.609H3.367a1.61 1.61 0 0 1-1.61-1.609v-6.44a1.61 1.61 0 0 1 1.61-1.609h11.267c.892 0 1.609.721 1.609 1.609v6.44zM4.976 7.39V4.814C4.976 2.68 6.779.95 9.001.95c2.222 0 4.024 1.73 4.024 3.864V7.39"/><circle fill="currentColor" cx="9" cy="11.687" r="2.044"/></g></svg><svg viewBox="0 0 28 28" id="icon-lookup" xmlns="http://www.w3.org/2000/svg"><g id="lookup" fill="none" stroke="currentColor" stroke-width="2" stroke-linecap="round" stroke-linejoin="round" stroke-miterlimit="10"><path d="M6.947 24.342l5.418-5.418A8.5 8.5 0 1 0 8 11.5c0 1.502.393 2.91 1.076 4.135l-5.418 5.418"/><circle cx="5.303" cy="22.697" r="2.303"/><circle cx="16.5" cy="11.5" r="5"/></g></svg><svg viewBox="0 0 28 28" id="icon-male" xmlns="http://www.w3.org/2000/svg"><g id="male" fill="none" stroke="currentColor" stroke-width="2" stroke-linecap="round" stroke-linejoin="round" stroke-miterlimit="10"><circle cx="14" cy="6" r="3"/><path d="M9 11v9.5h1.999V25h6v-4.5H19V11z"/></g></svg><svg viewBox="0 0 28 28" id="icon-manage-roles" xmlns="http://www.w3.org/2000/svg"><g id="manage_roles" fill="none" stroke="currentColor" stroke-miterlimit="10"><path stroke-width="2" d="M4.38 6.979S3.26 8.27 3.044 9.002c-.219.733.425 2.07 1.156 2.799.729.73 2.063 1.373 2.798 1.156.732-.219 2.024-1.336 2.024-1.336s3.218 1.19 3.89.52c.672-.672-2.682-4.184-3.775-5.276-1.094-1.094-4.605-4.448-5.278-3.777-.671.672.521 3.891.521 3.891z"/><path stroke-width="2" stroke-linecap="round" stroke-linejoin="round" d="M18.32 19.273c3.18 0 3.5-1.36 3.5-3.82S20.249 11 18.32 11c-1.936 0-3.5 2.227-3.5 4.453 0 2.547 1.906 5.094 0 5.727-1.913.64-3.82 1.913-3.82 3.184 0 0 3.5.636 7.32.636 3.815 0 6.68-.636 6.68-.636 0-1.911-3.82-3.185-5.093-3.185-.314-.953-.314-1.906-.314-1.906"/><path stroke-linecap="round" stroke-linejoin="round" d="M10.5 5.5c.5-1 1.652-2.5 4-2.5s4 1.5 4 5.5"/></g></svg><svg viewBox="0 0 28 28" id="icon-manage-users" xmlns="http://www.w3.org/2000/svg"><g id="manage_users" fill="none" stroke="currentColor" stroke-width="2" stroke-linecap="round" stroke-linejoin="round" stroke-miterlimit="10"><path d="M8.725 10.092c-2.725 0-3-1.167-3-3.275S7.072 3 8.725 3c1.66 0 3 1.908 3 3.816 0 2.184-1.633 4.367 0 4.908 1.64.551 3.275 1.641 3.275 2.731 0 0-3 .545-6.275.545C5.455 15 3 14.455 3 14.455c0-1.639 3.275-2.73 4.365-2.73.27-.816.27-1.633.27-1.633"/><path d="M18.32 19.273c3.18 0 3.5-1.36 3.5-3.82S20.249 11 18.32 11c-1.936 0-3.5 2.227-3.5 4.453 0 2.547 1.906 5.094 0 5.727-1.913.64-3.82 1.913-3.82 3.184 0 0 3.5.636 7.32.636 3.815 0 6.68-.636 6.68-.636 0-1.911-3.82-3.185-5.093-3.185-.314-.953-.314-1.906-.314-1.906"/></g></svg><svg id="icon-masspublish" viewBox="0 0 24 23" xmlns="http://www.w3.org/2000/svg"><path fill="none" stroke="currentColor" stroke-width="2" stroke-linecap="round" stroke-linejoin="round" stroke-miterlimit="10" d="M13.5 22V3L5 1 1 4v15zM4 15l6.5 1.5M17 16l6-1.5M21 17.5l2-3-3-2M17 8l6-1.5M21 9.5l2-3-3-2M4 8v4M7 9.5v3M10 7v6.5"/></svg><svg viewBox="0 0 28 28" id="icon-meeting-note" xmlns="http://www.w3.org/2000/svg"><g id="meeting_note" fill="none" stroke="currentColor" stroke-width="2" stroke-linecap="round" stroke-linejoin="round" stroke-miterlimit="10"><path d="M9 18.5L3 20V5l8-2 4 3M10.5 8.875L6 10M9.5 13.125L6 14M16.375 18.25c-3.75 0-4.125-1.601-4.125-4.5s1.848-5.25 4.125-5.25 4.125 2.625 4.125 5.25c0 3-2.25 6 0 6.75s4.5 2.25 4.5 3.75c0 0-4.125.75-8.625.75S8.5 24.25 8.5 24.25c0-2.25 4.5-3.75 6-3.75.375-1.125.375-2.25.375-2.25"/></g></svg><svg viewBox="0 0 16 16" id="icon-meeting-note-sm" xmlns="http://www.w3.org/2000/svg"><path fill="none" stroke="currentColor" stroke-width="2" stroke-linecap="round" stroke-linejoin="round" stroke-miterlimit="10" d="M7.773 8.909c-2.273 0-2.5-.97-2.5-2.728C5.273 4.425 6.393 3 7.773 3s2.5 1.591 2.5 3.182c0 1.818-1.364 3.637 0 4.092 1.364.453 2.727 1.363 2.727 2.271 0 0-2.5.455-5.227.455C5.045 13 3 12.545 3 12.545c0-1.363 2.727-2.271 3.637-2.271.227-.683.227-1.364.227-1.364" id="meeting_note_sm"/></svg><svg viewBox="0 0 28 28" id="icon-month-view" xmlns="http://www.w3.org/2000/svg"><g id="month_view"><path class="cdcircle" fill="currentColor" d="M11 7v4H6V7h5m0-2H6a2 2 0 0 0-2 2v4a2 2 0 0 0 2 2h5a2 2 0 0 0 2-2V7a2 2 0 0 0-2-2zM22 7v4h-5V7h5m0-2h-5a2 2 0 0 0-2 2v4a2 2 0 0 0 2 2h5a2 2 0 0 0 2-2V7a2 2 0 0 0-2-2zM11 17v4H6v-4h5m0-2H6a2 2 0 0 0-2 2v4a2 2 0 0 0 2 2h5a2 2 0 0 0 2-2v-4a2 2 0 0 0-2-2zM22 17v4h-5v-4h5m0-2h-5a2 2 0 0 0-2 2v4a2 2 0 0 0 2 2h5a2 2 0 0 0 2-2v-4a2 2 0 0 0-2-2z"/></g></svg><svg viewBox="0 0 28 28" id="icon-new-group" xmlns="http://www.w3.org/2000/svg"><g id="new_group" fill="none" stroke="currentColor" stroke-width="2" stroke-linecap="round" stroke-linejoin="round" stroke-miterlimit="10"><path d="M14.75 22.5l10 2.5V10l-8-2-2-3-8-2v3"/><path d="M24.75 25l-5-12-16-4 2.084 5.002M7.75 25v-8M3.75 21h8"/></g></svg><svg viewBox="0 0 28 28" id="icon-new-user" xmlns="http://www.w3.org/2000/svg"><g id="new_user" fill="none" stroke="currentColor" stroke-width="2" stroke-linecap="round" stroke-linejoin="round" stroke-miterlimit="10"><path d="M11.001 24.896c1.12.063 2.3.104 3.499.104 6 0 10.5-1 10.5-1 0-3-6-5-8-5-.5-1.5-.5-3-.5-3M14.5 16c5 0 5.5-2.134 5.5-6s-2.463-7-5.5-7S9 6.5 9 10c0 1.752.576 3.504.971 5.004M7.75 25v-8M3.75 21h8"/></g></svg><svg viewBox="0 0 28 28" id="icon-news" xmlns="http://www.w3.org/2000/svg"><g id="news" fill="none" stroke="currentColor" stroke-width="2" stroke-linecap="round" stroke-miterlimit="10"><path stroke-linejoin="round" d="M22 21V7.5L4 3v15.5s0 2 2 2.5l16 4c2 .5 3-1 3-1.5V10"/><path stroke-linejoin="round" d="M8 8.5L18 11v5L8 13.5z"/><path d="M8 17.5L18 20"/></g></svg><svg viewBox="0 0 28 28" id="icon-next" xmlns="http://www.w3.org/2000/svg"><path fill="none" stroke="currentColor" stroke-width="2" stroke-linecap="round" stroke-linejoin="round" stroke-miterlimit="10" d="M9 21l3 3 10-10L12 4 9 7l7 7z" id="next"/></svg><svg viewBox="0 0 16 16" id="icon-no-own" xmlns="http://www.w3.org/2000/svg"><path class="cicircle" fill="currentColor" d="M6.16 13.71a.99.99 0 0 1-.641-1.25 1 1 0 0 1 1.261-.65c.52.17.81.73.64 1.26a.995.995 0 0 1-.95.69c-.1 0-.2-.01-.31-.05zm2.44-.65c-.17-.52.12-1.09.641-1.26.529-.17 1.09.12 1.27.64.17.53-.12 1.09-.64 1.261A1.01 1.01 0 0 1 8.6 13.06zm-5.44-1.51c-.32-.45-.23-1.07.22-1.4a.992.992 0 0 1 1.39.21c.33.45.24 1.08-.21 1.4-.18.13-.39.2-.59.2-.31 0-.611-.141-.81-.41zm8.3.19a.986.986 0 0 1-.22-1.391c.319-.45.949-.55 1.399-.229.44.33.54.949.22 1.399a.996.996 0 0 1-.81.41.98.98 0 0 1-.589-.189zM2 8.029c0-.55.439-1 1-1 .55-.01 1 .44 1 .99 0 .561-.44 1-.99 1.01H3c-.55 0-1-.439-1-1zm10-.019v-.06c-.01-.551.43-1 .99-1.011.55 0 1 .44 1.01.99v.07a1 1 0 1 1-2 .011zm-8 .01zm8-.07zM3.35 5.899A1.002 1.002 0 0 1 3.12 4.5c.319-.44.949-.55 1.4-.221.45.321.549.941.22 1.391-.19.27-.5.42-.811.42a.979.979 0 0 1-.579-.191zm7.86-.279c-.33-.45-.24-1.08.2-1.4.449-.33 1.08-.24 1.409.2.32.45.23 1.07-.21 1.399-.18.131-.39.2-.59.2a1.014 1.014 0 0 1-.809-.399zM5.47 3.569c-.18-.52.1-1.09.63-1.26a.984.984 0 0 1 1.26.63.985.985 0 0 1-.631 1.261.857.857 0 0 1-.319.06c-.41 0-.801-.27-.94-.691zm3.73.611a.984.984 0 0 1-.65-1.25c.16-.53.72-.82 1.25-.66.53.17.82.73.65 1.26a.997.997 0 0 1-.95.7c-.101-.001-.2-.02-.3-.05z" id="no_own"/></svg><svg viewBox="0 0 28 28" id="icon-notebook" xmlns="http://www.w3.org/2000/svg"><g id="notebook" fill="none" stroke="currentColor" stroke-width="2" stroke-linecap="round" stroke-linejoin="round" stroke-miterlimit="10"><path d="M20 22.5l2 .5V6L10 3"/><path d="M22 6.5l-4 2v15l4-2M18 25V8L6 5v17zM6 5c0-1.104 1.791-2 4-2"/><path d="M9 10l6 1.5v3L9 13z"/></g></svg><svg viewBox="0 0 28 28" id="icon-options" xmlns="http://www.w3.org/2000/svg"><g id="options" fill="none" stroke="currentColor" stroke-width="2" stroke-linejoin="round" stroke-miterlimit="10"><path d="M22 14a8.35 8.35 0 0 0-.033-.656l2.56-3.111-2-3.465-3.971.661a7.937 7.937 0 0 0-1.141-.655L16 3h-4l-1.415 3.773a8.047 8.047 0 0 0-1.141.655l-3.97-.66-2 3.465 2.56 3.111C6.016 13.561 6 13.778 6 14s.016.439.033.656l-2.56 3.111 2 3.465 3.971-.661c.359.25.742.466 1.141.655L12 25h4l1.415-3.773a8.047 8.047 0 0 0 1.141-.655l3.971.661 2-3.465-2.56-3.111A8.4 8.4 0 0 0 22 14z"/><circle cx="14" cy="14" r="3.5"/></g></svg><svg viewBox="0 0 28 28" id="icon-password-policies" xmlns="http://www.w3.org/2000/svg"><g id="password_policies" fill="none" stroke="currentColor" stroke-width="2" stroke-miterlimit="10"><path d="M23 23a2 2 0 0 1-2 2H7a2 2 0 0 1-2-2v-8a2 2 0 0 1 2-2h14a2 2 0 0 1 2 2v8zM11 13V9a3.001 3.001 0 0 1 6 0v4"/><path d="M8 13V9a6 6 0 0 1 12 0v4M16 19.5a2 2 0 0 1-4 0v-1a2 2 0 0 1 4 0v1z"/></g></svg><svg viewBox="0 0 28 28" id="icon-popout" xmlns="http://www.w3.org/2000/svg"><g id="external_link"><path class="cmcircle" fill="currentColor" d="M19 14.036a1 1 0 0 0-1 1V21H7V10h5.964a1 1 0 1 0 0-2H7c-1.103 0-2 .897-2 2v11c0 1.103.897 2 2 2h11c1.103 0 2-.897 2-2v-5.964a1 1 0 0 0-1-1z"/><path class="cmcircle" fill="currentColor" d="M22.923 5.618A1.003 1.003 0 0 0 22 5h-5.656a1 1 0 1 0 0 2h3.242l-7.043 7.043a.999.999 0 1 0 1.414 1.414L21 8.414v3.243a1 1 0 1 0 2 0V6c0-.13-.026-.26-.077-.382z"/></g></svg><svg viewBox="0 0 16 16" id="icon-popup-details" xmlns="http://www.w3.org/2000/svg"><g id="popup_details"><path fill="none" stroke="currentColor" stroke-width="2" stroke-linecap="round" stroke-linejoin="round" stroke-miterlimit="10" d="M6 8H3v5h5v-3"/><path class="cncircle" fill="currentColor" d="M12 4v5H7V4h5m0-2H7a2 2 0 0 0-2 2v5a2 2 0 0 0 2 2h5a2 2 0 0 0 2-2V4a2 2 0 0 0-2-2z"/></g></svg><svg id="icon-portfolio-download" viewBox="0 0 28 28" xmlns="http://www.w3.org/2000/svg"><g fill="none" stroke="currentColor" stroke-width="2" stroke-linecap="round" stroke-linejoin="round" stroke-miterlimit="10"><path d="M3.5 17V4.5h21V17M4 7.5h20M14 11.5V24M14 24l-3.5-3.5M14 24l3.5-3.5M3.5 17h7M17.5 17h7"/></g></svg><svg viewBox="0 0 28 28" id="icon-prev" xmlns="http://www.w3.org/2000/svg"><path fill="none" stroke="currentColor" stroke-width="2" stroke-linecap="round" stroke-linejoin="round" stroke-miterlimit="10" d="M19 21.001l-3 3-10-10 10-10 3 3-7 7z" id="prev"/></svg><svg viewBox="11.5 11 28 28" id="icon-proceed" xmlns="http://www.w3.org/2000/svg"><g id="proceed"><path class="cqcircle" fill="currentColor" d="M39.479 24.226c-.426-7.676-6.99-13.638-14.753-13.204-3.733.207-7.163 1.854-9.657 4.641s-3.754 6.377-3.547 10.111C11.933 33.189 18.066 39 25.488 39a13.906 13.906 0 0 0 10.443-4.662 13.914 13.914 0 0 0 3.548-10.112zm-5.445 8.414a11.377 11.377 0 0 1-7.901 3.797c-6.34.351-11.722-4.521-12.069-10.803a11.38 11.38 0 0 1 2.902-8.272 11.376 11.376 0 0 1 7.901-3.798c.216-.012.431-.019.646-.019 6.07 0 11.089 4.753 11.425 10.822a11.392 11.392 0 0 1-2.904 8.273z"/><path class="cqcircle" fill="currentColor" d="M21.555 19.654L26.899 25l-5.344 5.346 2.291 2.29L31.481 25l-7.635-7.636z"/></g></svg><svg viewBox="0 0 28 28" id="icon-profile" xmlns="http://www.w3.org/2000/svg"><path fill="none" stroke="currentColor" stroke-width="2" stroke-linecap="round" stroke-linejoin="round" stroke-miterlimit="10" d="M14.501 16c5 0 5.5-2.134 5.5-6s-2.463-7-5.5-7-5.5 3.5-5.5 7c0 4 3 8 0 9s-6 3-6 5c0 0 5.5 1 11.5 1s10.5-1 10.5-1c0-3-6-5-8-5-.5-1.5-.5-3-.5-3" id="profile"/></svg><svg viewBox="0 0 28 28" id="icon-profile_group" xmlns="http://www.w3.org/2000/svg"><path fill="none" stroke="currentColor" stroke-width="2" stroke-linecap="round" stroke-linejoin="round" stroke-miterlimit="10" d="M24.334 25l-5-12-16-4 5 12 16 4V10l-8-2-2-3-8-2v3" id="profile_group"/></svg><svg viewBox="0 0 28 28" id="icon-publish" xmlns="http://www.w3.org/2000/svg"><g id="publish" fill="none" stroke="currentColor" stroke-width="2" stroke-miterlimit="10"><path stroke-linecap="round" stroke-linejoin="round" d="M15 18.5V22L3 25V5l8-2 4 3M12 9.5L6 11M12 13.5L6 15M12 17.5L6 19"/><path stroke-linecap="round" stroke-linejoin="round" d="M19.422 7.578L13 14l-1 5 5-1 6.422-6.422"/><circle cx="22.172" cy="8.828" r="2.828"/></g></svg><svg id="icon-refresh" viewBox="0 0 28 28" xmlns="http://www.w3.org/2000/svg"><g fill="none" stroke="currentColor" stroke-width="2" stroke-linecap="round" stroke-miterlimit="10" id="refresh"><path d="M10.461 16.832l.401 3.897-3.586 1.056"/><path stroke-linejoin="round" d="M10.862 20.729A7.425 7.425 0 0 1 6.568 14 7.43 7.43 0 0 1 14 6.568M17.139 7.27A7.43 7.43 0 0 1 21.432 14 7.43 7.43 0 0 1 14 21.432"/><path d="M17.539 11.168l-.4-3.898 3.584-1.055"/></g></svg><svg id="icon-reminder" viewBox="0 0 28 28" xmlns="http://www.w3.org/2000/svg"><g id="reminder" fill="none" stroke="currentColor" stroke-width="2" stroke-linecap="round" stroke-miterlimit="10"><path stroke-linejoin="round" d="M22.511 15.314h-.852M6.341 15.314h-.852M14 7.654v-.851M14 23.825v-.85"/><path d="M14 15.314v-5.106M14 15.314l2.979 1.276"/><circle stroke-linejoin="round" cx="14" cy="15.314" r="8.937"/><path stroke-linejoin="round" d="M23.082 8.359a2.407 2.407 0 1 0-3.404-3.404M4.918 8.359a2.407 2.407 0 1 1 3.404-3.404"/></g></svg><svg viewBox="0 0 16 16" id="icon-remove" xmlns="http://www.w3.org/2000/svg"><g id="close_x2F_clear_sm" fill="none" stroke="currentColor" stroke-width="2" stroke-linecap="round" stroke-linejoin="round" stroke-miterlimit="10"><path d="M12 4l-8 8M12 12L4 4"/></g></svg><svg viewBox="0 0 28 28" id="icon-resize-column" xmlns="http://www.w3.org/2000/svg"><g id="resize_column" fill="none" stroke="currentColor" stroke-width="2" stroke-linecap="round" stroke-linejoin="round" stroke-miterlimit="10"><path d="M25 14h-8.5M21 18l4-4-4-4M3.001 14.001H11.5M7.001 10.001l-4 4 3.999 4"/></g></svg><svg viewBox="0 0 28 28" id="icon-role" xmlns="http://www.w3.org/2000/svg"><g fill="none" stroke="currentColor" stroke-width="2" stroke-linejoin="round" stroke-miterlimit="10" id="role"><path d="M5.971 15.956c-1.932.909-3.073 2.013-2.964 3.095.217 2.156 5.315 3.406 11.387 2.793 6.07-.613 10.815-2.856 10.6-5.014-.109-1.084-1.455-1.938-3.536-2.442"/><path stroke-linecap="round" d="M6.12 17.453s-.754-6.48-.062-7.699c.695-1.221 2.69-3.312 7.259-3.54 5.172-.258 7.006 1.158 7.27 2.114.264.957 1.057 7.586 1.057 7.586s-2.646 1.599-6.604 2.172c-3.957.573-5.655.013-5.655.013M20.587 8.328s-7.7.061-10.307 1.807"/></g></svg><svg viewBox="0 0 28 28" id="icon-scan-mode" xmlns="http://www.w3.org/2000/svg"><g id="scan_mode" fill="none" stroke="currentColor" stroke-width="2" stroke-linecap="round" stroke-linejoin="round" stroke-miterlimit="10"><path d="M5 6h18M5 10h17M5 14h18M5 18h17M5 22h18"/></g></svg><svg id="icon-selector-filter" viewBox="0 0 40 35" xmlns="http://www.w3.org/2000/svg"><g fill="none" stroke="currentColor" stroke-width="2.5" stroke-miterlimit="10"><path stroke-linecap="round" stroke-linejoin="round" d="M28 12.969h5.055H28zm-6 0H5.5 22z"/><circle cx="25" cy="13" r="3"/><g><path stroke-linecap="round" stroke-linejoin="round" d="M17 22.969h16.055H17zm-6 0H5.5 11z"/><circle cx="14" cy="23" r="3"/></g></g></svg><svg viewBox="0 0 28 28" id="icon-service" xmlns="http://www.w3.org/2000/svg"><g id="service" fill="none" stroke="currentColor" stroke-width="2" stroke-linecap="round" stroke-linejoin="round" stroke-miterlimit="10"><path d="M3 9l10-5 12 3-10 5z"/><path d="M3 9v13l12 3V12zM25 7l-10 5v13l10-5z"/></g></svg><svg viewBox="0 0 28 28" id="icon-services-menu" xmlns="http://www.w3.org/2000/svg"><g id="services_menu" fill="none" stroke="currentColor" stroke-width="2" stroke-linecap="round" stroke-linejoin="round" stroke-miterlimit="10"><path d="M21 7.834H7M21 13.834H7M21 19.834H7"/></g></svg><svg viewBox="0 0 28 28" id="icon-size-l" xmlns="http://www.w3.org/2000/svg"><g id="labels" font-family="'Lato-Bold'" font-size="11.5"><text transform="translate(-37.22 -78)">Size S</text><text transform="translate(-41.746 -30)">Size M</text><text transform="translate(-36.997 18)">Size L</text></g><path fill="none" stroke="currentColor" stroke-width="2" stroke-linecap="round" stroke-linejoin="round" stroke-miterlimit="10" d="M3 5h22v18H3z" id="size_l"/><g id="size_m"><path fill="none" stroke="currentColor" stroke-width="2" stroke-linecap="round" stroke-linejoin="round" stroke-miterlimit="10" d="M3-43h22v18H3zM3-31h22"/><path d="M3-31h22v6H3z"/></g><g id="size_s"><path fill="none" stroke="currentColor" stroke-width="2" stroke-linecap="round" stroke-linejoin="round" stroke-miterlimit="10" d="M3-91h22v18H3zM3-79h22M3-85h22"/><path d="M3-85h22v12H3z"/></g></svg><svg viewBox="0 0 28 28" id="icon-size-m" xmlns="http://www.w3.org/2000/svg"><g id="labels" font-family="'Lato-Bold'" font-size="11.5"><text transform="translate(-37.22 -30)">Size S</text><text transform="translate(-41.746 18)">Size M</text><text transform="translate(-36.997 66)">Size L</text></g><path fill="none" stroke="currentColor" stroke-width="2" stroke-linecap="round" stroke-linejoin="round" stroke-miterlimit="10" d="M3 53h22v18H3z" id="size_l"/><g id="size_m"><path fill="none" stroke="currentColor" stroke-width="2" stroke-linecap="round" stroke-linejoin="round" stroke-miterlimit="10" d="M3 5h22v18H3zM3 17h22"/><path class="decircle" fill="currentColor" d="M3 17h22v6H3z"/></g><g id="size_s"><path fill="none" stroke="currentColor" stroke-width="2" stroke-linecap="round" stroke-linejoin="round" stroke-miterlimit="10" d="M3-43h22v18H3zM3-31h22M3-37h22"/><path d="M3-37h22v12H3z"/></g></svg><svg viewBox="0 0 28 28" id="icon-size-s" xmlns="http://www.w3.org/2000/svg"><g id="labels" font-family="'Lato-Bold'" font-size="11.5"><text transform="translate(-37.22 18)">Size S</text><text transform="translate(-41.746 66)">Size M</text><text transform="translate(-36.997 114)">Size L</text></g><path fill="none" stroke="currentColor" stroke-width="2" stroke-linecap="round" stroke-linejoin="round" stroke-miterlimit="10" d="M3 101h22v18H3z" id="size_l"/><g id="size_m"><path fill="none" stroke="currentColor" stroke-width="2" stroke-linecap="round" stroke-linejoin="round" stroke-miterlimit="10" d="M3 53h22v18H3zM3 65h22"/><path d="M3 65h22v6H3z"/></g><g id="size_s"><path fill="none" stroke="currentColor" stroke-width="2" stroke-linecap="round" stroke-linejoin="round" stroke-miterlimit="10" d="M3 5h22v18H3zM3 17h22M3 11h22"/><path class="dfcircle" fill="currentColor" d="M3 11h22v12H3z"/></g></svg><svg viewBox="0 0 16 16" id="icon-sole_ownership" xmlns="http://www.w3.org/2000/svg"><circle fill="none" stroke="currentColor" stroke-width="2" stroke-miterlimit="10" cx="8" cy="8" r="5" id="sole_ownership"/></svg><svg viewBox="0 0 16 16" id="icon-startpage" xmlns="http://www.w3.org/2000/svg"><path fill="none" stroke="currentColor" stroke-width="2" stroke-linecap="round" stroke-linejoin="round" stroke-miterlimit="10" d="M8 11.756l-3.709 1.951L5 9.576 2 6.652l4.146-.601L8 2.293l1.854 3.758L14 6.652l-3 2.924.709 4.131z" id="start_page"/></svg><svg viewBox="0 0 28 28" id="icon-table" xmlns="http://www.w3.org/2000/svg"><g id="table"><path class="dicircle" fill="currentColor" d="M24 8v12H4V8h20m2-2H2v16h24V6z"/><path fill="none" stroke="currentColor" stroke-linecap="round" stroke-linejoin="round" stroke-miterlimit="10" d="M3 11.5h22M3 14.5h22M3 17.5h22M14.5 7v14M9.5 7v14M19.5 7v14"/></g></svg><svg viewBox="0 0 28 28" id="icon-timeline" xmlns="http://www.w3.org/2000/svg"><g id="timeline" fill="none" stroke="currentColor" stroke-width="2" stroke-linecap="round" stroke-miterlimit="10"><path stroke-linejoin="round" d="M24 14h-1M5 14H4M14 5V4"/><path d="M9 18l.566 5.508L4.5 25"/><path stroke-linejoin="round" d="M9.566 23.508C5.986 21.835 3.5 18.212 3.5 14 3.5 8.201 8.201 3.5 14 3.5S24.5 8.201 24.5 14 19.799 24.5 14 24.5V23"/><path d="M14 14V8M14 14l3.5 1.5"/></g></svg><svg viewBox="0 0 28 28" id="icon-to-do-note" xmlns="http://www.w3.org/2000/svg"><g id="to-do_note" fill="none" stroke="currentColor" stroke-width="2" stroke-linecap="round" stroke-linejoin="round" stroke-miterlimit="10"><path d="M15 17L3 20V5l8-2 4 3zM12 8.5L6 10M12 12.5L6 14M25 8.5L20.5 13 18 10.5M25 14.5L20.5 19 18 16.5M25 20.5L20.5 25 18 22.5"/></g></svg><svg viewBox="0 0 16 16" id="icon-to-do-note-sm" xmlns="http://www.w3.org/2000/svg"><g id="to-do_note_sm" fill="none" stroke="currentColor" stroke-width="2" stroke-linecap="round" stroke-linejoin="round" stroke-miterlimit="10"><path d="M13 5.5l-5 5L5.5 8"/><path d="M11 11.5V13H3V5h6.5"/></g></svg><svg viewBox="0 0 28 28" id="icon-to-do-reminder" xmlns="http://www.w3.org/2000/svg"><g id="to-do_reminder" fill="none" stroke="currentColor" stroke-width="2" stroke-linecap="round" stroke-linejoin="round" stroke-miterlimit="10"><path d="M14 5.5c-3.59 0-5.833 3.141-5.833 6.281 0 2.244-.449 3.591-1.347 4.938-.703 1.056-2.692 1.794-2.692 3.589C4.128 23 9.961 23 14 23s9.872 0 9.872-2.692c0-1.795-1.989-2.533-2.692-3.589-.897-1.347-1.347-2.693-1.347-4.938C19.833 8.641 17.59 5.5 14 5.5"/><path d="M16.437 6.045c.039-.176.063-.357.063-.545a2.5 2.5 0 1 0-4.937.545M11.549 22.98a2.498 2.498 0 0 0 4.902 0"/></g></svg><svg viewBox="0 0 16 16" id="icon-to-do-reminder-sm" xmlns="http://www.w3.org/2000/svg"><g id="to-do_reminder_sm" fill="none" stroke="currentColor" stroke-width="2" stroke-linecap="round" stroke-linejoin="round" stroke-miterlimit="10"><path d="M8 4.137c-1.632 0-2.651 1.428-2.651 2.855 0 1.02-.204 1.631-.612 2.244-.319.479-1.224.814-1.224 1.631 0 1.224 2.651 1.224 4.487 1.224s4.487 0 4.487-1.224c0-.816-.904-1.151-1.224-1.631-.408-.613-.612-1.225-.612-2.244 0-1.428-1.019-2.855-2.651-2.855"/><path d="M6.907 12.083c.106.519.544.917 1.093.917s.987-.398 1.093-.917M6.863 4.137a1.138 1.138 0 0 1 2.274 0"/></g></svg><svg viewBox="0 0 16 16" id="icon-trade" xmlns="http://www.w3.org/2000/svg"><g fill="none" stroke="currentColor" stroke-width="2" stroke-linecap="round" stroke-miterlimit="10" id="trade"><path d="M11.5 5.5s-1-1-3.5-1c-2 0-3.5 1-3.5 2 0 2.5 7 .5 7 3 0 1-1.5 2-3.5 2-2.5 0-3.5-1-3.5-1M8 4.5V3M8 13v-1.5"/></g></svg><svg viewBox="0 0 28 28" id="icon-transactions" xmlns="http://www.w3.org/2000/svg"><g id="transactions" fill="none" stroke="currentColor" stroke-width="2" stroke-linecap="round" stroke-linejoin="round" stroke-miterlimit="10"><path d="M16 12.5L10 11l-2 4-5-8 11-4-2 4 10 2.5M12 15.5l6 1.5 2-4 5 8-11 4 2-4-10-2.5"/></g></svg><svg viewBox="0 0 28 28" id="icon-trash" xmlns="http://www.w3.org/2000/svg"><g id="trash" fill="none" stroke="currentColor" stroke-width="2" stroke-linejoin="round" stroke-miterlimit="10"><path stroke-linecap="round" d="M18.501 9.468C20.029 9.835 21 10.385 21 11c0 1.104-3.135 2-7 2s-7-.896-7-2c0-.615.971-1.165 2.499-1.532"/><path d="M19.25 23.5c0 .828-2.351 1.5-5.25 1.5s-5.25-.672-5.25-1.5"/><path stroke-linecap="round" d="M7 11l1.75 12.5M21 11l-1.75 12.5M10.5 6.5l3.5 3L17 6M14 8a5 5 0 0 0-5-5"/></g></svg><svg viewBox="0 0 12 12" id="icon-unchecked-box" xmlns="http://www.w3.org/2000/svg"><path fill="none" stroke="currentColor" stroke-width="2" stroke-linecap="round" stroke-linejoin="round" stroke-miterlimit="10" d="M10 8.5V10H2V2h8z" id="labels"/></svg><svg viewBox="0 0 28 28" id="icon-uploaded-file" xmlns="http://www.w3.org/2000/svg"><g id="uploaded_file" fill="none" stroke="currentColor" stroke-width="2" stroke-linecap="round" stroke-linejoin="round" stroke-miterlimit="10"><path d="M18 20.5h4a3 3 0 1 0 0-6c-.596 0-1.148.179-1.615.479A3.499 3.499 0 0 0 17.5 9.5c-.761 0-1.46.249-2.034.661C15.29 7.836 13.37 6 11 6a4.5 4.5 0 0 0-4.5 4.5c0 .742.196 1.432.515 2.049C5.037 12.791 3.5 14.457 3.5 16.5a4 4 0 0 0 4 4H10"/><path d="M11 17l3-3 3 3M14 14v10"/></g></svg><svg viewBox="0 0 28 28" id="icon-user-group" xmlns="http://www.w3.org/2000/svg"><path fill="none" stroke="currentColor" stroke-width="2" stroke-linecap="round" stroke-linejoin="round" stroke-miterlimit="10" d="M25 25l-5-12L4 9l5 12 16 4V10l-8-2-2-3-8-2v3" id="user_group"/></svg><svg viewBox="0 0 28 28" id="icon-vertical-menu" xmlns="http://www.w3.org/2000/svg"><path fill="none" stroke="currentColor" stroke-width="2" stroke-linecap="round" stroke-linejoin="round" stroke-miterlimit="10" d="M16.577 5.5a2.5 2.5 0 1 1-5 0 2.5 2.5 0 0 1 5 0zm-2.5 14.5a2.5 2.5 0 1 0 0 5 2.5 2.5 0 0 0 0-5zm0-8.5a2.5 2.5 0 1 0 0 5 2.5 2.5 0 0 0 0-5z" id="vertical_menu"/></svg><svg viewBox="0 0 28 28" id="icon-warning" xmlns="http://www.w3.org/2000/svg"><g id="warning"><circle fill="none" stroke="currentColor" stroke-width="2" stroke-linecap="round" stroke-linejoin="round" stroke-miterlimit="10" cx="14" cy="14" r="9"/><path fill="none" stroke="currentColor" stroke-width="2" stroke-linecap="round" stroke-linejoin="round" stroke-miterlimit="10" d="M14 14.5v-6"/><path class="dvcircle" fill="currentColor" d="M14 17c-.83 0-1.5.67-1.5 1.5S13.17 20 14 20s1.5-.67 1.5-1.5S14.83 17 14 17z"/></g></svg><svg viewBox="0 0 28 28" id="icon-week-view" xmlns="http://www.w3.org/2000/svg"><path class="dwcircle" fill="currentColor" d="M18 10v8h-8v-8h8m0-2h-8a2 2 0 0 0-2 2v8a2 2 0 0 0 2 2h8a2 2 0 0 0 2-2v-8a2 2 0 0 0-2-2z" id="week_view"/></svg><svg viewBox="0 0 16 16" id="icon-x-sm" xmlns="http://www.w3.org/2000/svg"><g id="close_x2F_clear_sm" fill="none" stroke="currentColor" stroke-width="2" stroke-linecap="round" stroke-linejoin="round" stroke-miterlimit="10"><path d="M12 4l-8 8M12 12L4 4"/></g></svg><svg viewBox="0 0 28 28" id="icon-year-view" xmlns="http://www.w3.org/2000/svg"><g id="year_view"><path class="dycircle" fill="currentColor" d="M8 6v2H6V6h2m0-2H6a2 2 0 0 0-2 2v2a2 2 0 0 0 2 2h2a2 2 0 0 0 2-2V6a2 2 0 0 0-2-2zM15 6v2h-2V6h2m0-2h-2a2 2 0 0 0-2 2v2a2 2 0 0 0 2 2h2a2 2 0 0 0 2-2V6a2 2 0 0 0-2-2zM22 6v2h-2V6h2m0-2h-2a2 2 0 0 0-2 2v2a2 2 0 0 0 2 2h2a2 2 0 0 0 2-2V6a2 2 0 0 0-2-2zM8 13v2H6v-2h2m0-2H6a2 2 0 0 0-2 2v2a2 2 0 0 0 2 2h2a2 2 0 0 0 2-2v-2a2 2 0 0 0-2-2zM15 13v2h-2v-2h2m0-2h-2a2 2 0 0 0-2 2v2a2 2 0 0 0 2 2h2a2 2 0 0 0 2-2v-2a2 2 0 0 0-2-2zM22 13v2h-2v-2h2m0-2h-2a2 2 0 0 0-2 2v2a2 2 0 0 0 2 2h2a2 2 0 0 0 2-2v-2a2 2 0 0 0-2-2zM8 20v2H6v-2h2m0-2H6a2 2 0 0 0-2 2v2a2 2 0 0 0 2 2h2a2 2 0 0 0 2-2v-2a2 2 0 0 0-2-2zM15 20v2h-2v-2h2m0-2h-2a2 2 0 0 0-2 2v2a2 2 0 0 0 2 2h2a2 2 0 0 0 2-2v-2a2 2 0 0 0-2-2zM22 20v2h-2v-2h2m0-2h-2a2 2 0 0 0-2 2v2a2 2 0 0 0 2 2h2a2 2 0 0 0 2-2v-2a2 2 0 0 0-2-2z"/></g></svg><svg id="icon-arrow_level" width="9" height="11" viewBox="0 0 9 11" fill="none" xmlns="http://www.w3.org/2000/svg"><path d="M1 0V7H8" stroke="#999999"/><path d="M5 4L8.03113 6.91013L5 9.8469" stroke="#999999"/></svg><svg xmlns="http://www.w3.org/2000/svg" viewBox="0 0 25.6 16.1" xmlns:v="https://vecta.io/nano" id="icon-filter"><path d="M24.3 2.5h-2.9C20.7.6 18.5-.4 16.6.3a3.96 3.96 0 0 0-2.2 2.2H1.3C.6 2.5 0 3.1 0 3.8S.6 5 1.3 5h13.1c.7 1.9 2.9 2.9 4.8 2.2A3.96 3.96 0 0 0 21.4 5h2.9c.7 0 1.3-.6 1.3-1.3s-.7-1.2-1.3-1.2h0zM17.8 5c-.7 0-1.3-.6-1.3-1.3s.6-1.3 1.3-1.3 1.3.6 1.3 1.3S18.5 5 17.8 5zM.2 12.4c0 .7.6 1.3 1.3 1.3h2.9c.7 1.9 2.8 2.9 4.8 2.2 1-.4 1.9-1.2 2.2-2.2h13.1c.7 0 1.3-.6 1.3-1.3s-.6-1.3-1.3-1.3H11.3c-.7-1.9-2.8-2.9-4.8-2.2-1 .4-1.9 1.2-2.2 2.2H1.4c-.7 0-1.2.6-1.2 1.3zm6.4 0c0-.7.6-1.3 1.3-1.3s1.3.6 1.3 1.3-.6 1.3-1.3 1.3-1.3-.6-1.3-1.3z"/></svg><svg id="icon-dashboard" data-name="Layer 1" xmlns="http://www.w3.org/2000/svg" viewBox="0 0 20.5 23.5"><path d="M7,4H5V2A1,1,0,0,0,3,2V4H1A1,1,0,0,0,1,6H3V8A1,1,0,0,0,5,8V6H7A1,1,0,0,0,7,4Z" style="fill:currentColor"/><path d="M19.5,22a1,1,0,0,1-1-1V4.85L9.69,2a1,1,0,0,1,.62-1.9l9.5,3.13a1,1,0,0,1,.69.94V21A1,1,0,0,1,19.5,22Z" style="fill:currentColor"/><path d="M16.29,5l-5-1.5a1,1,0,1,0-.58,1.92L15,6.74V21.11L5,17.78V14.64l2.06,1.47a.79.79,0,0,0,.44.14.73.73,0,0,0,.5-.19l4.37-3.94-.12,3.06A.75.75,0,0,0,13,16h0a.74.74,0,0,0,.74-.72l.22-5a.76.76,0,0,0-.72-.78l-5-.21a.75.75,0,1,0-.06,1.5l3.32.14-4,3.65L5,12.79V12a1,1,0,0,0-2,0v6.5a1,1,0,0,0,.68.95l12,4a1.19,1.19,0,0,0,.32.05.94.94,0,0,0,.58-.19A1,1,0,0,0,17,22.5V6A1,1,0,0,0,16.29,5Z" style="fill:currentColor"/></svg><svg id="icon-comp-job" data-name="Layer 1" xmlns="http://www.w3.org/2000/svg" viewBox="0 0 24 23.5"><path d="M15,10.5H13v-2a1,1,0,0,0-2,0v2H9a1,1,0,0,0,0,2h2v2a1,1,0,0,0,2,0v-2h2a1,1,0,0,0,0-2Z" transform="translate(0 0)"/><path d="M11,23.5a1,1,0,0,1-.24,0L.76,21A1,1,0,0,1,0,20V9a1,1,0,0,1,.4-.8l4-3A1,1,0,0,1,5.24,5l4,1A1,1,0,1,1,8.76,8L5.22,7.09,2,9.5v9.72l8,2V18a1,1,0,0,1,2,0v4.5a1,1,0,0,1-1,1Z" transform="translate(0 0)"/><path d="M6,15.5l-.24,0-2-.5A1,1,0,0,1,4.24,13l2,.5a1,1,0,0,1-.24,2Z" transform="translate(0 0)"/><path d="M6,12.5l-.24,0-2-.5A1,1,0,0,1,4.24,10l2,.5a1,1,0,0,1-.24,2Z" transform="translate(0 0)"/><path d="M8,19a1,1,0,0,1-.24,0l-4-1A1,1,0,1,1,4.24,16l4,1A1,1,0,0,1,9,18.24,1,1,0,0,1,8,19Z" transform="translate(0 0)"/><path d="M23,19a1,1,0,0,1-.24,0l-8-2A1,1,0,1,1,15.24,15L22,16.72V3.78L15.22,2.09,14,3V5.5a1,1,0,0,1-2,0v-3a1,1,0,0,1,.4-.8l2-1.5A1,1,0,0,1,15.24,0l8,2A1,1,0,0,1,24,3V18a1,1,0,0,1-1,1Z" transform="translate(0 0)"/><path d="M20,8.5l-.24,0-4-1A1,1,0,0,1,15,6.26a1,1,0,0,1,1.21-.73l4,1a1,1,0,0,1-.24,2Z" transform="translate(0 0)"/><path d="M20,11.5l-.24,0-2-.5A1,1,0,1,1,18.24,9l2,.5a1,1,0,0,1-.24,2Z" transform="translate(0 0)"/><path d="M20,14.5l-.24,0-2-.5A1,1,0,1,1,18.24,12l2,.5a1,1,0,0,1-.24,2Z" transform="translate(0 0)"/></svg><svg id="icon-trash-delete" data-name="Layer 1" xmlns="http://www.w3.org/2000/svg" viewBox="0 0 18 20"><path d="M6.33,9.53a.74.74,0,0,0-.75.75v5.13a.75.75,0,0,0,1.5,0V10.28A.75.75,0,0,0,6.33,9.53Z" style="fill-rule:evenodd"/><path d="M9.28,9.53a.75.75,0,0,0-.75.75v5.13a.75.75,0,0,0,1.5,0V10.28A.75.75,0,0,0,9.28,9.53Z" style="fill-rule:evenodd"/><path d="M12.1,9.53a.75.75,0,0,0-.75.75v5.13a.75.75,0,0,0,1.5,0V10.28A.74.74,0,0,0,12.1,9.53Z" style="fill-rule:evenodd"/><path d="M18,5.26a2.43,2.43,0,0,0-2.42-2.42H14.14A2.89,2.89,0,0,0,11.25,0H6.75A2.89,2.89,0,0,0,3.86,2.84H2.42a2.42,2.42,0,0,0-.49,4.79H1.88V17a3,3,0,0,0,3,3h8.24a3,3,0,0,0,3-3V7.63h-.05A2.42,2.42,0,0,0,18,5.26ZM6.75,2h4.5a.89.89,0,0,1,.88.84H5.87A.89.89,0,0,1,6.75,2Zm7.37,15a1,1,0,0,1-1,1H4.88a1,1,0,0,1-1-1V7.74a.13.13,0,0,1,0-.06H14.12V17ZM15.58,5.68H2.42a.42.42,0,0,1,0-.84H15.58a.42.42,0,0,1,0,.84Z" style="fill-rule:evenodd"/></svg><svg id="icon-inprogress-lg" width="100%" height="100%" viewBox="0 0 33 33" version="1.1" xmlns="http://www.w3.org/2000/svg" xmlns:xlink="http://www.w3.org/1999/xlink" xml:space="preserve" xmlns:serif="http://www.serif.com/" style="fill-rule:evenodd;clip-rule:evenodd;stroke-linecap:round;stroke-linejoin:round;"><g id="inprogress_lg" transform="matrix(0.962594,0,0,0.849224,-2.88778,-10.4354)"><rect x="3" y="12.288" width="33.983" height="38.22" style="fill:none;"/><g id="in-progress---large" serif:id="in progress   large" transform="matrix(1.03886,0,0,1.17755,-0.644814,-6.73222)"><g id="Group-22" serif:id="Group 22"><path id="Fill-1" serif:id="Fill 1" d="M28.235,20.447C27.777,21.361 26.664,21.726 25.754,21.272C24.839,20.811 24.469,19.7 24.927,18.789C25.387,17.875 26.5,17.509 27.411,17.964C28.326,18.424 28.693,19.531 28.235,20.447Z" style="fill:rgb(51,51,51);"/><path id="Fill-3" serif:id="Fill 3" d="M23.422,18.351C23.317,19.365 22.404,20.101 21.387,19.996C20.373,19.89 19.635,18.978 19.741,17.967C19.848,16.947 20.758,16.21 21.776,16.319C22.79,16.422 23.528,17.333 23.422,18.351Z" style="fill:rgb(51,51,51);"/><path id="Fill-5" serif:id="Fill 5" d="M18.179,18.089C18.435,19.074 17.845,20.085 16.851,20.342C15.866,20.605 14.858,20.01 14.597,19.025C14.338,18.037 14.927,17.023 15.919,16.765C16.907,16.504 17.917,17.098 18.179,18.089Z" style="fill:rgb(51,51,51);"/><path id="Fill-7" serif:id="Fill 7" d="M13.178,19.69C13.766,20.521 13.57,21.677 12.738,22.266C11.908,22.856 10.754,22.663 10.158,21.829C9.567,20.994 9.766,19.841 10.599,19.247C11.427,18.659 12.584,18.854 13.178,19.69Z" style="fill:rgb(51,51,51);"/><path id="Fill-10" serif:id="Fill 10" d="M9.063,22.952C9.907,23.53 10.128,24.676 9.557,25.522C8.989,26.37 7.839,26.593 6.995,26.022C6.149,25.45 5.925,24.301 6.494,23.452C7.063,22.606 8.214,22.385 9.063,22.952Z" style="fill:rgb(51,51,51);"/><path id="Fill-12" serif:id="Fill 12" d="M6.367,27.459C7.358,27.702 7.97,28.692 7.739,29.686C7.501,30.685 6.509,31.301 5.515,31.064C4.52,30.83 3.904,29.831 4.14,28.838C4.37,27.844 5.371,27.231 6.367,27.459Z" style="fill:rgb(51,51,51);"/><path id="Fill-14" serif:id="Fill 14" d="M5.435,32.63C6.443,32.503 7.372,33.216 7.503,34.228C7.636,35.245 6.916,36.172 5.904,36.301C4.891,36.436 3.965,35.715 3.837,34.705C3.699,33.691 4.419,32.763 5.435,32.63Z" style="fill:rgb(51,51,51);"/><path id="Fill-16" serif:id="Fill 16" d="M6.386,37.795C7.286,37.316 8.409,37.658 8.889,38.561C9.37,39.465 9.024,40.581 8.121,41.064C7.223,41.543 6.102,41.201 5.625,40.298C5.137,39.399 5.481,38.279 6.386,37.795Z" style="fill:rgb(51,51,51);"/><path id="Stroke-18" serif:id="Stroke 18" d="M10.189,43.44C15.817,48.483 24.458,48.516 30.123,43.291C36.082,37.79 36.48,28.562 31.088,22.541" style="fill:none;fill-rule:nonzero;stroke:rgb(51,51,51);stroke-width:2.5px;"/></g><path id="Stroke-3" serif:id="Stroke 3" d="M27.848,28.389L18.473,38.389L12.848,32.389" style="fill:none;fill-rule:nonzero;stroke:rgb(51,51,51);stroke-width:2.5px;"/></g></g></svg><svg version="1.1" id="icon-menu-mb" xmlns="http://www.w3.org/2000/svg" xmlns:xlink="http://www.w3.org/1999/xlink" x="0px" y="0px" viewBox="0 0 26 20" enable-background="new 0 0 26 20" xml:space="preserve"> <g> <g> <path fill="currentColor" d="M24,3.5H2C1.2,3.5,0.5,2.8,0.5,2S1.2,0.5,2,0.5h22c0.8,0,1.5,0.7,1.5,1.5S24.8,3.5,24,3.5z"/> </g> <g> <path fill="currentColor" d="M24,11.5H2c-0.8,0-1.5-0.7-1.5-1.5S1.2,8.5,2,8.5h22c0.8,0,1.5,0.7,1.5,1.5S24.8,11.5,24,11.5z"/> </g> <g> <path fill="currentColor" d="M24,19.5H2c-0.8,0-1.5-0.7-1.5-1.5s0.7-1.5,1.5-1.5h22c0.8,0,1.5,0.7,1.5,1.5S24.8,19.5,24,19.5z"/> </g> </g> </svg></svg>
