<svg id="Layer_1" data-name="Layer 1" xmlns="http://www.w3.org/2000/svg" viewBox="0 0 1883.04 263.56"><title>ANYDAY logo</title><path d="M386.07,410.14h42.62L568.88,591.08V410.14h45.24V671.83H575.61L431.31,485.66V671.83H386.07Z" transform="translate(-18.96 -408.27)"/><path d="M807.76,568.65,703.84,410.14h54.58l72.89,115.52,74-115.52h52.71L854.12,567.53v104.3H807.76Z" transform="translate(-18.96 -408.27)"/><path d="M1751.71,568.65,1647.79,410.14h54.58l72.9,115.52,74-115.52H1902L1798.07,567.53v104.3h-46.36Z" transform="translate(-18.96 -408.27)"/><path d="M1145.34,410.14h-97.57V601.56h0a46.61,46.61,0,0,0,46.61-46.62V452h51c55,0,90.84,37.76,90.84,89v.74c0,51.22-35.89,88.23-90.84,88.23h-97.57a41.88,41.88,0,0,0-41.88,41.87h139.45c82.24,0,139.07-57.2,139.07-130.84v-.75C1284.41,466.59,1227.58,410.14,1145.34,410.14Z" transform="translate(-18.96 -408.27)"/><path d="M243.27,671.83h48.6L176.72,408.27H134.1L19,671.83H197.28A41.87,41.87,0,0,0,155.41,630H83.85l70.82-166.73Z" transform="translate(-18.96 -408.27)"/><polygon points="1487.51 0 1444.89 0 1329.75 263.56 1376.85 263.56 1403.77 200.38 1420.59 159.63 1465.45 54.96 1510.69 159.63 1527.51 200.38 1554.05 263.56 1602.65 263.56 1487.51 0"/></svg>