<?xml version="1.0" encoding="utf-8"?>
<!-- Generator: Adobe Illustrator 24.2.1, SVG Export Plug-In . SVG Version: 6.00 Build 0)  -->
<svg version="1.1" id="Layer_1" xmlns="http://www.w3.org/2000/svg" xmlns:xlink="http://www.w3.org/1999/xlink" x="0px" y="0px"
	 viewBox="0 0 1883 263.6" style="enable-background:new 0 0 1883 263.6;" xml:space="preserve">
<g>
	<g>
		<path d="M367.1,1.9h42.6l140.2,180.9V1.9h45.2v261.7h-38.5L412.4,77.4v186.2h-45.2V1.9z"/>
	</g>
	<g>
		<path d="M788.8,160.4L684.9,1.9h54.6l72.9,115.5l74-115.5h52.7L835.2,159.3v104.3h-46.4V160.4z"/>
	</g>
	<g>
		<path d="M1732.8,160.4L1628.8,1.9h54.6l72.9,115.5l74-115.5h52.7l-103.9,157.4v104.3h-46.4V160.4z"/>
	</g>
	<g>
		<path d="M1126.4,1.9h-51h-46.6v41.9v149.5l0,0c25.7,0,46.6-20.9,46.6-46.6V43.7h5.3h45.7c54.9,0,90.8,37.8,90.8,89v0.8
			c0,51.2-35.9,88.2-90.8,88.2h-97.6c-23.1,0-41.9,18.8-41.9,41.9l0,0h139.4c82.2,0,139.1-57.2,139.1-130.8V132
			C1265.5,58.3,1208.6,1.9,1126.4,1.9z"/>
	</g>
	<g>
		<path d="M224.3,263.6h48.6L157.8,0h-42.6L0,263.6h21.3h25.9h131.2c0-23.1-18.8-41.9-41.9-41.9H64.9L135.7,55L224.3,263.6z"/>
	</g>
	<g>
		<polygon points="1487.5,0 1444.9,0 1329.8,263.6 1376.9,263.6 1403.8,200.4 1420.6,159.6 1465.5,55 1510.7,159.6 1527.5,200.4 
			1554.1,263.6 1602.7,263.6 		"/>
	</g>
</g>
</svg>
