<?xml version="1.0" encoding="utf-8"?>
<!-- Generator: Adobe Illustrator 24.0.1, SVG Export Plug-In . SVG Version: 6.00 Build 0)  -->
<svg version="1.1" id="Layer_1" xmlns="http://www.w3.org/2000/svg" xmlns:xlink="http://www.w3.org/1999/xlink" x="0px" y="0px"
	 viewBox="0 0 1920 1080" style="enable-background:new 0 0 1920 1080;" xml:space="preserve">
<g>
	<g>
		<path d="M386.07,410.14h42.62l140.19,180.94V410.14h45.24v261.69h-38.51l-144.3-186.17v186.17h-45.24V410.14z"/>
	</g>
	<g>
		<path d="M807.76,568.65L703.84,410.14h54.58l72.9,115.52l74.02-115.52h52.71L854.12,567.53v104.3h-46.36V568.65z"/>
	</g>
	<g>
		<path d="M1751.71,568.65l-103.93-158.51h54.58l72.9,115.52l74.02-115.52H1902l-103.93,157.39v104.3h-46.36V568.65z"/>
	</g>
	<g>
		<path d="M1145.34,410.14h-50.96h-46.61v41.87v149.54l0,0c25.74,0,46.61-20.87,46.61-46.61V452.01h5.29h45.67
			c54.95,0,90.84,37.76,90.84,88.97v0.75c0,51.22-35.89,88.23-90.84,88.23h-97.57c-23.12,0-41.87,18.75-41.87,41.87v0h139.44
			c82.24,0,139.07-57.2,139.07-130.84v-0.75C1284.41,466.59,1227.58,410.14,1145.34,410.14z"/>
	</g>
	<g>
		<path d="M243.27,671.83h48.6L176.72,408.27H134.1L18.96,671.83h21.25h25.86h131.22c0-23.12-18.75-41.87-41.87-41.87H83.85
			l70.82-166.73L243.27,671.83z"/>
	</g>
	<g>
		<polygon points="1506.47,408.27 1463.85,408.27 1348.71,671.83 1395.82,671.83 1422.73,608.65 1439.55,567.9 1484.42,463.23 
			1529.65,567.9 1546.47,608.65 1573.02,671.83 1621.61,671.83 		"/>
	</g>
</g>
</svg>
