<?xml version="1.0" encoding="utf-8"?>
<!-- Generator: Adobe Illustrator 24.2.1, SVG Export Plug-In . SVG Version: 6.00 Build 0)  -->
<svg version="1.1" id="Layer_1" xmlns:serif="http://www.serif.com/"
	 xmlns="http://www.w3.org/2000/svg" xmlns:xlink="http://www.w3.org/1999/xlink" x="0px" y="0px" viewBox="0 0 611.7 85.6"
	 style="enable-background:new 0 0 611.7 85.6;" xml:space="preserve">
<style type="text/css">
	.st0{fill:#FFFFFF;}
</style>
<g transform="matrix(1,0,0,1,-18.96,-408.27)">
	<path class="st0" d="M138.2,408.9H152l45.5,58.8v-58.8h14.7v85h-12.5l-46.9-60.5v60.5h-14.7V408.9z"/>
</g>
<g transform="matrix(1,0,0,1,-18.96,-408.27)">
	<path class="st0" d="M275.2,460.4l-33.8-51.5h17.7l23.7,37.5l24-37.5H324L290.2,460v33.9h-15.1V460.4z"/>
</g>
<g transform="matrix(1,0,0,1,-18.96,-408.27)">
	<path class="st0" d="M581.8,460.4l-33.8-51.5h17.7l23.7,37.5l24-37.5h17.1L596.9,460v33.9h-15.1V460.4z"/>
</g>
<g transform="matrix(1,0,0,1,-18.96,-408.27)">
	<path class="st0" d="M384.8,408.9h-31.7v62.2l0,0c8.3,0,15.1-6.8,15.1-15.1c0,0,0,0,0,0v-33.4h16.6c17.9,0,29.5,12.3,29.5,28.9v0.2
		c0,16.6-11.7,28.7-29.5,28.7h-31.7c-7.5,0-13.6,6.1-13.6,13.6h45.3c26.7,0,45.2-18.6,45.2-42.5v-0.2
		C430,427.2,411.6,408.9,384.8,408.9z"/>
</g>
<g transform="matrix(1,0,0,1,-18.96,-408.27)">
	<path class="st0" d="M91.8,493.9h15.8l-37.4-85.6H56.3L19,493.9h57.9c0-7.5-6.1-13.6-13.6-13.6H40l23-54.2L91.8,493.9z"/>
</g>
<path class="st0" d="M483.2,0h-13.8l-37.4,85.6h15.3l8.7-20.5l5.5-13.2l14.6-34l14.7,34l5.5,13.2l8.6,20.5h15.8L483.2,0z"/>
</svg>
