<svg xmlns="http://www.w3.org/2000/svg" width="40.753" height="31.856" viewBox="0 0 40.753 31.856"><g transform="translate(-8 -62)"><path d="M46.781,65.158A3.157,3.157,0,0,0,43.659,62H11.122A3.157,3.157,0,0,0,8,65.158V84.733a3.148,3.148,0,0,0,3.122,3.148H30.416a9.509,9.509,0,0,0,18.337-3.538,9.477,9.477,0,0,0-1.972-5.8Zm-37.467,0a1.841,1.841,0,0,1,1.808-1.844H43.659a1.841,1.841,0,0,1,1.808,1.844v.7H9.315Zm0,2.018H45.467v3.451H9.315ZM30,86.567H11.122a1.832,1.832,0,0,1-1.808-1.834V71.942H45.467v5.212a9.5,9.5,0,0,0-15.726,7.2A9.818,9.818,0,0,0,30,86.567Zm17.439-2.23a8.192,8.192,0,1,1-8.192-8.192A8.192,8.192,0,0,1,47.438,84.337Z"/><path d="M77.995,237.3a2.841,2.841,0,0,0-1.905.741,2.841,2.841,0,0,0-1.906-.741,3.083,3.083,0,0,0,0,6.158,2.841,2.841,0,0,0,1.906-.741,2.841,2.841,0,0,0,1.905.741,3.083,3.083,0,0,0,0-6.158Zm-2.677,4.337a1.549,1.549,0,0,1-1.134.507,1.771,1.771,0,0,1,0-3.529,1.549,1.549,0,0,1,1.134.507,3.207,3.207,0,0,0,0,2.515Zm2.677.507a1.549,1.549,0,0,1-1.134-.507,3.207,3.207,0,0,0,0-2.515,1.549,1.549,0,0,1,1.134-.507,1.771,1.771,0,0,1,0,3.529Zm23.1-.017-5.1,4.813-2.463-2.529a.657.657,0,1,0-.942.917l2.915,2.993a.657.657,0,0,0,.922.019l5.57-5.257a.657.657,0,0,0-.9-.956Z" transform="translate(-58.053 -160.897)"/></g></svg>