<svg xmlns="http://www.w3.org/2000/svg" width="46" height="32.857" viewBox="0 0 46 32.857"><defs><style>.a{fill:#101010;}</style></defs><g transform="translate(-839.85 -661)"><path class="a" d="M52.734,37.879a13.371,13.371,0,0,0,0-13.685c-.01-.021-.01-.045-.022-.065a.776.776,0,0,0-.062-.069,14.284,14.284,0,0,0-11.425-6.8v-.906h1.487a2.177,2.177,0,1,0,0-4.352H38.056a2.177,2.177,0,1,0,0,4.352h1.486v.906A14.008,14.008,0,0,0,26.149,31.036a13.354,13.354,0,0,0,1.5,6.177,14.216,14.216,0,0,0,12.736,7.644A14.458,14.458,0,0,0,47.4,43.044a.823.823,0,0,0,.1-.04.778.778,0,0,0,.066-.057,14.121,14.121,0,0,0,5.05-4.884.806.806,0,0,0,.093-.118C52.724,37.924,52.724,37.9,52.734,37.879ZM37.51,14.175a.54.54,0,0,1,.546-.533h4.655a.533.533,0,1,1,0,1.066H38.056A.54.54,0,0,1,37.51,14.175Zm9.86,26.972-.989-1.663a.851.851,0,0,0-1.15-.3.81.81,0,0,0-.3,1.122l.98,1.647a12.741,12.741,0,0,1-4.681,1.217V38.847a.841.841,0,0,0-1.682,0v4.339a12.828,12.828,0,0,1-4.656-1.2l.994-1.681a.811.811,0,0,0-.308-1.122.851.851,0,0,0-1.149.3l-1,1.691a12.319,12.319,0,0,1-3.442-3.323l1.756-.99a.811.811,0,0,0,.308-1.122.852.852,0,0,0-1.149-.3l-1.765,1a11.728,11.728,0,0,1-1.252-4.578h4.512a.822.822,0,1,0,0-1.643H27.874a11.79,11.79,0,0,1,1.271-4.569l1.751.988a.854.854,0,0,0,.42.11.844.844,0,0,0,.729-.411.811.811,0,0,0-.308-1.122l-1.752-.988a12.474,12.474,0,0,1,3.444-3.316l.994,1.681a.844.844,0,0,0,.729.411.853.853,0,0,0,.42-.11.811.811,0,0,0,.308-1.122L34.9,20.1a12.741,12.741,0,0,1,4.646-1.2v4.326a.841.841,0,0,0,1.682,0V18.9a12.74,12.74,0,0,1,4.658,1.206l-.981,1.66a.811.811,0,0,0,.308,1.122.853.853,0,0,0,.42.11.844.844,0,0,0,.729-.411l.99-1.674A12.471,12.471,0,0,1,50.8,24.252l-1.707.957a.811.811,0,0,0-.311,1.121.843.843,0,0,0,.73.412.853.853,0,0,0,.418-.109l1.707-.957a11.789,11.789,0,0,1,1.255,4.538H48.431a.822.822,0,1,0,0,1.643h4.462A11.789,11.789,0,0,1,51.637,36.4L49.93,35.44a.852.852,0,0,0-1.148.3.811.811,0,0,0,.311,1.121l1.707.957A12.47,12.47,0,0,1,47.37,41.147Z" transform="translate(831.232 649)"/><path class="a" d="M35.245,28.441a.841.841,0,1,0-1.531.7l2.18,4.793-2.522,3.508a.841.841,0,0,0,.192,1.174.832.832,0,0,0,.49.159.84.84,0,0,0,.684-.35l2.806-3.9a.842.842,0,0,0,.083-.839ZM21.955,41.751H13.31a.841.841,0,0,0,0,1.682h8.645a.841.841,0,0,0,0-1.682ZM20.273,38.5a.841.841,0,0,0-.841-.841H9.76a.841.841,0,0,0,0,1.682h9.671A.841.841,0,0,0,20.273,38.5ZM18.93,34.405a.841.841,0,0,0-.841-.841H4.841a.841.841,0,1,0,0,1.682H18.089A.841.841,0,0,0,18.93,34.405Z" transform="translate(835.85 645.682)"/></g></svg>