<?xml version="1.0" encoding="UTF-8" standalone="no"?>
<!DOCTYPE svg PUBLIC "-//W3C//DTD SVG 1.1//EN" "http://www.w3.org/Graphics/SVG/1.1/DTD/svg11.dtd">
<svg width="100%" height="100%" viewBox="0 0 45 40" version="1.1" xmlns="http://www.w3.org/2000/svg" xmlns:xlink="http://www.w3.org/1999/xlink" xml:space="preserve" xmlns:serif="http://www.serif.com/" style="fill-rule:evenodd;clip-rule:evenodd;stroke-linejoin:round;stroke-miterlimit:2;">
    <g transform="matrix(1,0,0,1,-0.002,35)">
        <path d="M21.109,-22.5C21.109,-22.5 21.109,-22.5 21.109,-22.5C20.851,-22.5 20.64,-22.288 20.64,-22.031C20.64,-22.026 20.64,-22.021 20.64,-22.016L21.227,-6.7C21.235,-6.448 21.444,-6.246 21.696,-6.247L23.296,-6.247C23.547,-6.248 23.755,-6.449 23.765,-6.7L24.351,-22.013C24.351,-22.018 24.351,-22.023 24.351,-22.028C24.351,-22.285 24.14,-22.497 23.882,-22.497C23.882,-22.497 23.882,-22.497 23.882,-22.497L21.109,-22.5ZM22.5,-4.687C22.499,-4.687 22.498,-4.687 22.497,-4.687C21.299,-4.687 20.313,-3.701 20.313,-2.503C20.313,-2.502 20.313,-2.501 20.313,-2.5C20.313,-2.499 20.313,-2.497 20.313,-2.496C20.313,-1.298 21.299,-0.312 22.497,-0.312C22.498,-0.312 22.499,-0.312 22.5,-0.312C22.501,-0.312 22.503,-0.312 22.504,-0.312C23.702,-0.312 24.688,-1.298 24.688,-2.496C24.688,-2.497 24.688,-2.499 24.688,-2.5C24.688,-2.501 24.688,-2.502 24.688,-2.503C24.688,-3.701 23.702,-4.687 22.504,-4.687C22.503,-4.687 22.501,-4.687 22.5,-4.687ZM44.492,-0.625L25.75,-33.125C25.08,-34.284 23.839,-35 22.5,-35C21.161,-35 19.92,-34.284 19.25,-33.125L0.508,-0.625C0.18,-0.056 0.008,0.59 0.008,1.247C0.008,3.305 1.7,4.998 3.758,5L41.25,5C43.305,4.996 44.994,3.304 44.994,1.249C44.994,0.591 44.821,-0.055 44.492,-0.625ZM41.25,2.5L3.75,2.5C3.063,2.499 2.499,1.934 2.499,1.247C2.499,1.029 2.556,0.814 2.664,0.625L21.414,-31.875C21.637,-32.261 22.05,-32.499 22.496,-32.499C22.942,-32.499 23.355,-32.261 23.578,-31.875L42.328,0.625C42.439,0.815 42.497,1.032 42.497,1.252C42.497,1.936 41.934,2.499 41.25,2.5Z" style="fill:rgb(14,122,119);fill-rule:nonzero;"/>
    </g>
</svg>
