<svg xmlns="http://www.w3.org/2000/svg" width="44.998" height="40" viewBox="0 0 44.998 40"><defs><style>.a{fill:#fff;}</style></defs><path class="a" d="M21.109-22.5a.469.469,0,0,0-.469.484L21.227-6.7a.467.467,0,0,0,.469.453h1.6a.472.472,0,0,0,.469-.453l.586-15.313a.469.469,0,0,0-.469-.484ZM22.5-4.687A2.184,2.184,0,0,0,20.313-2.5,2.184,2.184,0,0,0,22.5-.312,2.184,2.184,0,0,0,24.688-2.5,2.184,2.184,0,0,0,22.5-4.687ZM44.492-.625,25.75-33.125a3.754,3.754,0,0,0-6.5,0L.508-.625A3.753,3.753,0,0,0,3.758,5H41.25A3.751,3.751,0,0,0,44.492-.625ZM41.25,2.5H3.75A1.253,1.253,0,0,1,2.664.625l18.75-32.5a1.25,1.25,0,0,1,2.164,0L42.328.625A1.248,1.248,0,0,1,41.25,2.5Z" transform="translate(-0.002 35)"/></svg>