<svg xmlns="http://www.w3.org/2000/svg" width="18" height="14" viewBox="0 0 18 14"><defs><style>.a{fill:#fff;}</style></defs><path class="a" d="M16.5-13.031H1.5a1.5,1.5,0,0,0-1.5,1.5v11A1.5,1.5,0,0,0,1.5.969h15A1.5,1.5,0,0,0,18-.531v-11A1.5,1.5,0,0,0,16.5-13.031ZM17-.531a.5.5,0,0,1-.5.5H1.5a.5.5,0,0,1-.5-.5v-11a.5.5,0,0,1,.5-.5h15a.5.5,0,0,1,.5.5ZM6-2.656a.376.376,0,0,0-.375-.375H3.375A.376.376,0,0,0,3-2.656v.25a.376.376,0,0,0,.375.375h2.25A.376.376,0,0,0,6-2.406Zm6,0a.376.376,0,0,0-.375-.375H7.375A.376.376,0,0,0,7-2.656v.25a.376.376,0,0,0,.375.375h4.25A.376.376,0,0,0,12-2.406Zm3.25-8.375h-2.5a.748.748,0,0,0-.75.75v1.5a.748.748,0,0,0,.75.75h2.5a.748.748,0,0,0,.75-.75v-1.5A.748.748,0,0,0,15.25-11.031Zm-.25,2H13v-1h2Zm-6.875,5A.376.376,0,0,0,8.5-4.406v-1.25a.376.376,0,0,0-.375-.375H6.375A.376.376,0,0,0,6-5.656v1.25a.376.376,0,0,0,.375.375ZM9-4.406a.376.376,0,0,0,.375.375h1.75a.376.376,0,0,0,.375-.375v-1.25a.376.376,0,0,0-.375-.375H9.375A.376.376,0,0,0,9-5.656Zm-6,0a.376.376,0,0,0,.375.375h1.75A.376.376,0,0,0,5.5-4.406v-1.25a.376.376,0,0,0-.375-.375H3.375A.376.376,0,0,0,3-5.656Zm12-1.25a.376.376,0,0,0-.375-.375h-2.25A.376.376,0,0,0,12-5.656v1.25a.376.376,0,0,0,.375.375h2.25A.376.376,0,0,0,15-4.406Z" transform="translate(0 13.031)"/></svg>