<svg xmlns="http://www.w3.org/2000/svg" width="19.95" height="19.396" viewBox="0 0 19.95 19.396"><defs><style>.a{fill:#fff;}</style></defs><path class="a" d="M22.828,5.23a.581.581,0,0,0-.5-.264H9.032L8.013,1.506A2.679,2.679,0,0,0,7.641.7a1.455,1.455,0,0,0-.5-.469,2.188,2.188,0,0,0-.46-.186A1.612,1.612,0,0,0,6.29,0H3.607a.587.587,0,0,0-.431.176A.608.608,0,0,0,3,.626a.635.635,0,0,0,.078.3.535.535,0,0,0,.225.225.638.638,0,0,0,.3.078H6.29a.533.533,0,0,1,.147.02.48.48,0,0,1,.186.166,1.209,1.209,0,0,1,.2.44l3.466,12.709a.709.709,0,0,0,.127.225.626.626,0,0,0,.206.166.562.562,0,0,0,.255.059h8.46A.616.616,0,0,0,19.7,14.9a.579.579,0,0,0,.225-.293l3-8.8A.627.627,0,0,0,22.828,5.23ZM18.9,13.765h-7.54l-2-7.547H21.428Zm-1.234,2.5a1.57,1.57,0,1,0,1.106.459A1.51,1.51,0,0,0,17.668,16.267Zm-5.64,0a1.525,1.525,0,0,0-.793.215,1.577,1.577,0,0,0-.568.567,1.522,1.522,0,0,0-.206.782,1.565,1.565,0,0,0,2.673,1.1,1.5,1.5,0,0,0,.46-1.1,1.691,1.691,0,0,0-.029-.313,1.393,1.393,0,0,0-.088-.293,1.5,1.5,0,0,0-.147-.264,1.688,1.688,0,0,0-.431-.43,1.507,1.507,0,0,0-.264-.147,1.4,1.4,0,0,0-.294-.088A1.7,1.7,0,0,0,12.028,16.267Z" transform="translate(-3)"/></svg>