<svg xmlns="http://www.w3.org/2000/svg" width="30" height="24" viewBox="0 0 30 24"><defs><style>.a{fill:#008281;}</style></defs><path class="a" d="M2.25,1.5A.75.75,0,0,1,1.5.75V-1.2A4.806,4.806,0,0,1,6.3-6c.919,0,1.833.75,4.2.75S13.781-6,14.7-6c.127,0,.248.028.37.037A4.433,4.433,0,0,1,15.684-7.4a7.48,7.48,0,0,0-.989-.1c-1.345,0-1.992.75-4.2.75S7.645-7.5,6.3-7.5A6.3,6.3,0,0,0,0-1.2V.75A2.251,2.251,0,0,0,2.25,3H15.769a4.361,4.361,0,0,1-.694-1.5ZM10.5-9a6,6,0,0,0,6-6,6,6,0,0,0-6-6,6,6,0,0,0-6,6A6,6,0,0,0,10.5-9Zm0-10.5A4.5,4.5,0,0,1,15-15a4.5,4.5,0,0,1-4.5,4.5A4.5,4.5,0,0,1,6-15,4.512,4.512,0,0,1,10.5-19.5ZM23.25-3.75a1.5,1.5,0,0,0-1.5,1.5,1.5,1.5,0,0,0,1.5,1.5,1.5,1.5,0,0,0,1.5-1.5A1.5,1.5,0,0,0,23.25-3.75Zm4.5-3.75H27V-9.75a3.751,3.751,0,0,0-3.75-3.75A3.751,3.751,0,0,0,19.5-9.75V-7.5h-.75A2.251,2.251,0,0,0,16.5-5.25v6A2.251,2.251,0,0,0,18.75,3h9A2.251,2.251,0,0,0,30,.75v-6A2.251,2.251,0,0,0,27.75-7.5ZM21-9.75A2.251,2.251,0,0,1,23.25-12,2.251,2.251,0,0,1,25.5-9.75V-7.5H21ZM28.5.75a.75.75,0,0,1-.75.75h-9A.75.75,0,0,1,18,.75v-6A.75.75,0,0,1,18.75-6h9a.75.75,0,0,1,.75.75Z" transform="translate(0 21)"/></svg>