<svg xmlns="http://www.w3.org/2000/svg" width="16.625" height="16.625" viewBox="0 0 16.625 16.625"><defs><style>.a{fill:#fff;}</style></defs><path class="a" d="M14.844-14.25a.6.6,0,0,1,.594.594V-.594A.6.6,0,0,1,14.844,0H1.781a.6.6,0,0,1-.594-.594V-13.656a.6.6,0,0,1,.594-.594Zm0-1.187H1.781A1.782,1.782,0,0,0,0-13.656V-.594A1.782,1.782,0,0,0,1.781,1.188H14.844A1.782,1.782,0,0,0,16.625-.594V-13.656A1.782,1.782,0,0,0,14.844-15.437ZM12.617-7.793H8.98V-11.43a.447.447,0,0,0-.445-.445H8.09a.447.447,0,0,0-.445.445v3.637H4.008a.447.447,0,0,0-.445.445V-6.9a.447.447,0,0,0,.445.445H7.645V-2.82a.447.447,0,0,0,.445.445h.445A.447.447,0,0,0,8.98-2.82V-6.457h3.637a.447.447,0,0,0,.445-.445v-.445A.447.447,0,0,0,12.617-7.793Z" transform="translate(0 15.438)"/></svg>