<?xml version="1.0" encoding="UTF-8" standalone="no"?>
<!DOCTYPE svg PUBLIC "-//W3C//DTD SVG 1.1//EN" "http://www.w3.org/Graphics/SVG/1.1/DTD/svg11.dtd">
<svg width="100%" height="100%" viewBox="0 0 20 20" version="1.1" xmlns="http://www.w3.org/2000/svg" xmlns:xlink="http://www.w3.org/1999/xlink" xml:space="preserve" xmlns:serif="http://www.serif.com/" style="fill-rule:evenodd;clip-rule:evenodd;stroke-linejoin:round;stroke-miterlimit:2;">
    <g transform="matrix(1,0,0,1,-3,0)">
        <path d="M22.828,5.23C22.718,5.062 22.529,4.962 22.328,4.966L9.032,4.966L8.013,1.506C7.935,1.219 7.809,0.946 7.641,0.7C7.514,0.506 7.343,0.345 7.141,0.231C6.995,0.152 6.841,0.089 6.681,0.045C6.553,0.014 6.422,-0.001 6.29,0L3.607,0C3.445,-0.003 3.289,0.06 3.176,0.176C3.058,0.295 2.994,0.458 3,0.626C3.001,0.731 3.028,0.834 3.078,0.926C3.128,1.022 3.207,1.101 3.303,1.151C3.395,1.201 3.498,1.228 3.603,1.229L6.29,1.229C6.34,1.229 6.389,1.236 6.437,1.249C6.513,1.287 6.577,1.344 6.623,1.415C6.719,1.547 6.787,1.696 6.823,1.855L10.289,14.564C10.317,14.646 10.36,14.722 10.416,14.789C10.472,14.858 10.542,14.915 10.622,14.955C10.701,14.994 10.789,15.015 10.877,15.014L19.337,15.014C19.467,15.015 19.594,14.975 19.7,14.9C19.805,14.83 19.884,14.727 19.925,14.607L22.925,5.807C22.99,5.611 22.953,5.394 22.828,5.23ZM18.9,13.765L11.36,13.765L9.36,6.218L21.428,6.218L18.9,13.765ZM17.666,16.265C17.665,16.265 17.664,16.265 17.663,16.265C16.801,16.265 16.093,16.974 16.093,17.835C16.093,18.696 16.801,19.405 17.663,19.405C18.524,19.405 19.233,18.696 19.233,17.835C19.233,17.418 19.067,17.018 18.772,16.724C18.483,16.426 18.083,16.261 17.668,16.267L17.666,16.265ZM12.026,16.265C11.747,16.263 11.473,16.337 11.233,16.48C10.998,16.617 10.802,16.812 10.665,17.047C10.527,17.284 10.456,17.555 10.459,17.829C10.462,18.686 11.167,19.389 12.024,19.389C12.44,19.389 12.839,19.223 13.132,18.929C13.431,18.642 13.597,18.243 13.592,17.829C13.592,17.724 13.582,17.619 13.563,17.516C13.545,17.415 13.515,17.317 13.475,17.223C13.435,17.13 13.386,17.042 13.328,16.959C13.212,16.791 13.066,16.645 12.897,16.529C12.814,16.471 12.726,16.422 12.633,16.382C12.539,16.342 12.44,16.312 12.339,16.294C12.236,16.275 12.132,16.266 12.028,16.267L12.026,16.265Z" style="fill:rgb(8,217,214);fill-rule:nonzero;"/>
    </g>
</svg>
