<?xml version="1.0" encoding="UTF-8" standalone="no"?>
<!DOCTYPE svg PUBLIC "-//W3C//DTD SVG 1.1//EN" "http://www.w3.org/Graphics/SVG/1.1/DTD/svg11.dtd">
<svg width="100%" height="100%" viewBox="0 0 1024 1024" version="1.1" xmlns="http://www.w3.org/2000/svg" xmlns:xlink="http://www.w3.org/1999/xlink" xml:space="preserve" xmlns:serif="http://www.serif.com/" style="fill-rule:evenodd;clip-rule:evenodd;stroke-linejoin:round;stroke-miterlimit:2;">
    <path d="M960,96L704,96L704,32C704,23.333 700.833,15.833 694.5,9.5C688.167,3.167 680.667,0 672,0C663.333,0 655.833,3.167 649.5,9.5C643.167,15.833 640,23.333 640,32L640,96L384,96L384,32C384,23.333 380.833,15.833 374.5,9.5C368.167,3.167 360.667,0 352,0C343.333,0 335.833,3.167 329.5,9.5C323.167,15.833 320,23.333 320,32L320,96L64,96C46,96 30.833,102.167 18.5,114.5C6.167,126.833 0,142 0,160L0,960C0,971.333 2.833,982 8.5,992C14.167,1002 22,1009.83 32,1015.5C42,1021.17 52.667,1024 64,1024L960,1024C978,1024 993.167,1017.67 1005.5,1005C1017.83,992.333 1024,977.333 1024,960L1024,160C1024,148 1021.17,137.167 1015.5,127.5C1009.83,117.833 1002,110.167 992,104.5C982,98.833 971.333,96 960,96ZM960,960L64,960L64,160L320,160L320,192C320,200.667 323.167,208.167 329.5,214.5C335.833,220.833 343.333,224 352,224C360.667,224 368.167,220.833 374.5,214.5C380.833,208.167 384,200.667 384,192L384,160L640,160L640,192C640,200.667 643.167,208.167 649.5,214.5C655.833,220.833 663.333,224 672,224C680.667,224 688.167,220.833 694.5,214.5C700.833,208.167 704,200.667 704,192L704,160L960,160L960,960ZM736,512L800,512C808.667,512 816.167,508.833 822.5,502.5C828.833,496.167 832,488.667 832,480L832,416C832,407.333 828.833,399.833 822.5,393.5C816.167,387.167 808.667,384 800,384L736,384C727.333,384 719.833,387.167 713.5,393.5C707.167,399.833 704,407.333 704,416L704,480C704,488.667 707.167,496.167 713.5,502.5C719.833,508.833 727.333,512 736,512ZM736,768L800,768C808.667,768 816.167,764.833 822.5,758.5C828.833,752.167 832,744.667 832,736L832,672C832,663.333 828.833,655.833 822.5,649.5C816.167,643.167 808.667,640 800,640L736,640C727.333,640 719.833,643.167 713.5,649.5C707.167,655.833 704,663.333 704,672L704,736C704,744.667 707.167,752.167 713.5,758.5C719.833,764.833 727.333,768 736,768ZM544,640L480,640C471.333,640 463.833,643.167 457.5,649.5C451.167,655.833 448,663.333 448,672L448,736C448,739.333 448.5,742.667 449.5,746C450.5,749.333 452,752.333 454,755C456,757.667 458.333,760 461,762C463.667,764 466.667,765.5 470,766.5C473.333,767.5 476.667,768 480,768L544,768C552.667,768 560.167,764.833 566.5,758.5C572.833,752.167 576,744.667 576,736L576,672C576,669.333 575.667,666.5 575,663.5C574.333,660.5 573.333,657.833 572,655.5C570.667,653.167 569,651 567,649C565,647 562.833,645.333 560.5,644C558.167,642.667 555.5,641.667 552.5,641C549.5,640.333 546.667,640 544,640ZM544,384L480,384C471.333,384 463.833,387.167 457.5,393.5C451.167,399.833 448,407.333 448,416L448,480C448,488.667 451.167,496.167 457.5,502.5C463.833,508.833 471.333,512 480,512L544,512C552.667,512 560.167,508.833 566.5,502.5C572.833,496.167 576,488.667 576,480L576,416C576,411.333 575.167,407.167 573.5,403.5C571.833,399.833 569.5,396.5 566.5,393.5C563.5,390.5 560.167,388.167 556.5,386.5C552.833,384.833 548.667,384 544,384ZM288,384L224,384C215.333,384 207.833,387.167 201.5,393.5C195.167,399.833 192,407.333 192,416L192,480C192,488.667 195.167,496.167 201.5,502.5C207.833,508.833 215.333,512 224,512L288,512C296.667,512 304.167,508.833 310.5,502.5C316.833,496.167 320,488.667 320,480L320,416C320,411.333 319.167,407.167 317.5,403.5C315.833,399.833 313.5,396.5 310.5,393.5C307.5,390.5 304.167,388.167 300.5,386.5C296.833,384.833 292.667,384 288,384ZM288,640L224,640C215.333,640 207.833,643.167 201.5,649.5C195.167,655.833 192,663.333 192,672L192,736C192,744.667 195.167,752.167 201.5,758.5C207.833,764.833 215.333,768 224,768L288,768C296.667,768 304.167,764.833 310.5,758.5C316.833,752.167 320,744.667 320,736L320,672C320,669.333 319.667,666.5 319,663.5C318.333,660.5 317.333,657.833 316,655.5C314.667,653.167 313,651 311,649C309,647 306.833,645.333 304.5,644C302.167,642.667 299.5,641.667 296.5,641C293.5,640.333 290.667,640 288,640Z" style="fill:rgb(8,217,214);fill-rule:nonzero;"/>
    <g transform="matrix(1,-1.53143e-15,1.53143e-15,1,242.649,242.664)">
        <text x="0px" y="8.596px" style="font-family:'ArialMT', 'Arial', sans-serif;font-size:12px;fill:rgb(8,217,214);">08D9D6</text>
    </g>
    <rect x="0" y="0" width="1024" height="1024" style="fill:none;stroke:black;stroke-width:1px;"/>
</svg>
