<svg xmlns="http://www.w3.org/2000/svg" width="40.501" height="40.5" viewBox="0 0 40.501 40.5"><defs><style>.a{fill:#101010;stroke:#101010;stroke-width:0.5px;}</style></defs><g transform="translate(0.25 0.25)"><path class="a" d="M132.9,209.384a2.417,2.417,0,0,0-1.85-3.964h-7.61a.705.705,0,0,1-.725-1.082l1.3-3.129a4.931,4.931,0,0,0,0-3.809,5.038,5.038,0,0,0-.513-.936,6.39,6.39,0,0,0,.057-.824,6.749,6.749,0,1,0-6.75,6.749,6.463,6.463,0,0,0,.836-.055l-.116.279a4.534,4.534,0,0,1-.982,1.47.487.487,0,0,0-.045.052,4.539,4.539,0,0,1-3.157,1.283H108.9V204.7a.472.472,0,0,0-.472-.472h-7.66a.472.472,0,0,0-.472.472v16.448a.472.472,0,0,0,.472.472h7.66a.472.472,0,0,0,.472-.472v-3.1a6.474,6.474,0,0,1,4.135,1.9,6.649,6.649,0,0,0,4.74,1.973h10.016a2.414,2.414,0,0,0,1.907-3.886h.672a2.419,2.419,0,0,0,1.908-3.891h.027a2.416,2.416,0,0,0,.6-4.756Zm-24.949,11.288h-6.715v-15.5h6.715Zm8.853-19.228a5.8,5.8,0,1,1,5.8-5.955,4.97,4.97,0,0,0-.919-.608l-.085-.043-.093-.045c-.061-.028-.122-.056-.184-.082l-.015-.007a.473.473,0,0,0-.617.256l-2.627,6.338A5.717,5.717,0,0,1,116.809,201.445Zm15.5,11.751h-3.548a.472.472,0,1,0,0,.945h1.613a1.473,1.473,0,0,1,0,2.946h-2.536l-.043,0h-.973a.473.473,0,0,0,0,.947h.988a1.471,1.471,0,0,1-.015,2.942H117.776a5.712,5.712,0,0,1-4.071-1.7,7.414,7.414,0,0,0-4.8-2.177V206.363h4.445a5.483,5.483,0,0,0,3.869-1.6.475.475,0,0,0,.048-.057,5.47,5.47,0,0,0,1.139-1.728l2.978-7.189a4.075,4.075,0,0,1,1.246,1.109.472.472,0,0,0,.082.083,4.079,4.079,0,0,1,.433.785,3.993,3.993,0,0,1,0,3.084l-1.3,3.129a1.635,1.635,0,0,0,1.6,2.389h7.61a1.472,1.472,0,0,1,0,2.944h-2.3a.472.472,0,1,0,0,.945h3.548a1.471,1.471,0,0,1,0,2.942Z" transform="translate(-100.296 -181.917)"/><path class="a" d="M409.6,100.308a8.144,8.144,0,1,0,8.144,8.142h0A8.155,8.155,0,0,0,409.6,100.308Zm0,15.343a7.2,7.2,0,1,1,7.2-7.2A7.209,7.209,0,0,1,409.6,115.651Z" transform="translate(-377.743 -100.308)"/><path class="a" d="M141.5,132.253l-.079.189a.472.472,0,1,0,.872.363l.079-.189.023,0q.082.008.164.008a1.693,1.693,0,0,0,.645-3.258l-.008,0a.749.749,0,0,1-.438-.828h0a.759.759,0,0,1,.043-.139h0a.747.747,0,1,1,1.38.569.472.472,0,0,0,.872.364,1.685,1.685,0,0,0-.5-1.967l.078-.188a.472.472,0,1,0-.872-.363l-.079.191a1.7,1.7,0,0,0-1.829,1.283h0a1.694,1.694,0,0,0,1,1.953l.009,0a.747.747,0,0,1,.426.886h0a.744.744,0,0,1-.03.087v0a.746.746,0,0,1-.813.449h0a.754.754,0,0,1-.156-.045l0,0-.009,0a.749.749,0,0,1-.4-.974.472.472,0,0,0-.873-.361h0l0,.008A1.7,1.7,0,0,0,141.5,132.253Z" transform="translate(-137.674 -124.452)"/><path class="a" d="M105.649,111.016a5.354,5.354,0,1,0-5.353-5.355A5.362,5.362,0,0,0,105.649,111.016Zm0-9.764a4.409,4.409,0,1,1-4.408,4.409A4.415,4.415,0,0,1,105.649,101.253Z" transform="translate(-100.296 -100.308)"/><path class="a" d="M288.185,224.728a2.044,2.044,0,0,0-2.037-2.042h0a1.1,1.1,0,1,1,1.094-1.1.472.472,0,0,0,.945,0,2.043,2.043,0,0,0-1.568-1.984v-.368a.472.472,0,0,0-.945,0v.369a2.042,2.042,0,0,0,.471,4.028h0a1.1,1.1,0,0,1,.02,2.193h-.039a1.1,1.1,0,0,1-1.076-1.1.472.472,0,0,0-.945,0,2.045,2.045,0,0,0,1.569,1.986v.368a.472.472,0,0,0,.945,0v-.368A2.045,2.045,0,0,0,288.185,224.728Z" transform="translate(-269.632 -209.436)"/><path class="a" d="M470.391,142.648l.2-.49a.472.472,0,1,0-.872-.362l-.2.492a2.375,2.375,0,0,0-1.373.138q-.077.032-.15.068a2.367,2.367,0,0,0-1.1,1.133c-.013.029-.026.059-.039.089l-.008.02a2.392,2.392,0,0,0,1.207,3.065h.007l.079.034h0l.009,0,.024.009a1.447,1.447,0,0,1,.756,1.873h0l0,0,0,0a1.446,1.446,0,0,1-1.866.785l-.017-.009-.03-.011a1.444,1.444,0,0,1-.756-1.867l0-.008h0a.472.472,0,1,0-.873-.361h0l0,.008a2.393,2.393,0,0,0,.877,2.889l-.2.491a.465.465,0,0,0-.037.181.473.473,0,0,0,.909.182l.2-.492a2.368,2.368,0,0,0,.456.044,2.4,2.4,0,0,0,2.21-1.472v-.005a2.39,2.39,0,0,0-1.289-3.12h0l-.024-.009-.04-.018h0a1.445,1.445,0,0,1,1.176-2.639,1.423,1.423,0,0,1,.776.776,1.437,1.437,0,0,1,0,1.109.472.472,0,0,0,.873.361,2.393,2.393,0,0,0-.874-2.9Z" transform="translate(-436.471 -138.261)"/></g></svg>