<svg xmlns="http://www.w3.org/2000/svg" width="29.063" height="29.063" viewBox="0 0 29.063 29.063"><defs><style>.a{fill:#fff;}</style></defs><path class="a" d="M.469-11.25A14.529,14.529,0,0,0,15,3.281,14.529,14.529,0,0,0,29.531-11.25,14.529,14.529,0,0,0,15-25.781,14.529,14.529,0,0,0,.469-11.25ZM15-23.906A12.656,12.656,0,0,1,27.656-11.25,12.656,12.656,0,0,1,15,1.406,12.656,12.656,0,0,1,2.344-11.25,12.656,12.656,0,0,1,15-23.906Zm5.074,13.154a.716.716,0,0,0,.006-1l-6.744-6.738a.7.7,0,0,0-1,0l-.416.416a.7.7,0,0,0,0,1l5.83,5.83L11.918-5.426a.7.7,0,0,0,0,1l.416.416a.7.7,0,0,0,1,0Z" transform="translate(-0.469 25.781)"/></svg>