<svg xmlns="http://www.w3.org/2000/svg" width="153.333" height="153.333" viewBox="0 0 153.333 153.333"><defs><style>.a{fill:#fff;}</style></defs><path class="a" d="M-12769,6769a76.75,76.75,0,0,1,76.666-76.667,76.75,76.75,0,0,1,76.667,76.667,76.753,76.753,0,0,1-76.667,76.667A76.753,76.753,0,0,1-12769,6769Zm6.39,0a70.357,70.357,0,0,0,70.276,70.277,70.358,70.358,0,0,0,70.277-70.277,70.359,70.359,0,0,0-70.277-70.28A70.358,70.358,0,0,0-12762.61,6769Zm105.665,42.756a38.246,38.246,0,0,0-35.4-23.6,38.242,38.242,0,0,0-35.395,23.592,3.2,3.2,0,0,1-4.179,1.718,3.2,3.2,0,0,1-1.724-4.176,44.632,44.632,0,0,1,41.3-27.524,44.638,44.638,0,0,1,41.3,27.531,3.2,3.2,0,0,1-1.725,4.176,3.122,3.122,0,0,1-1.228.247A3.2,3.2,0,0,1-12656.945,6811.758Zm-9.845-39.564c0-4.083,4.865-11.562,6.957-14.594a3.31,3.31,0,0,1,5.253,0c2.089,3.032,6.957,10.511,6.957,14.594a9.6,9.6,0,0,1-9.585,9.585A9.6,9.6,0,0,1-12666.79,6772.194Zm6.387,0a3.2,3.2,0,0,0,3.2,3.191,3.2,3.2,0,0,0,3.2-3.195c-.029-.978-1.353-3.762-3.2-6.854C-12659.048,6768.438-12660.377,6771.223-12660.4,6772.2Zm-12.764-22.365a6.389,6.389,0,0,1,6.39-6.387,6.385,6.385,0,0,1,6.387,6.387,6.388,6.388,0,0,1-6.387,6.39A6.391,6.391,0,0,1-12673.167,6749.832Zm-51.11,0a6.385,6.385,0,0,1,6.387-6.387,6.386,6.386,0,0,1,6.391,6.387,6.389,6.389,0,0,1-6.391,6.39A6.388,6.388,0,0,1-12724.277,6749.832Z" transform="translate(12769 -6692.335)"/></svg>