<svg xmlns="http://www.w3.org/2000/svg" width="30" height="24" viewBox="0 0 30 24"><defs><style>.a{fill:#008281;}</style></defs><path class="a" d="M29.17-8.292,23.77-10.4a1.406,1.406,0,0,0-.52-.1,1.424,1.424,0,0,0-.52.1l-5.4,2.109a1.268,1.268,0,0,0-.83,1.167A10.657,10.657,0,0,0,22.73,2.9a1.406,1.406,0,0,0,.52.1,1.424,1.424,0,0,0,.52-.1A10.621,10.621,0,0,0,30-7.125,1.268,1.268,0,0,0,29.17-8.292ZM22.5,1.125A9.318,9.318,0,0,1,18-6.942L22.5-8.7Zm.778.38a.021.021,0,0,1,.014,0h-.023A.016.016,0,0,0,23.278,1.5ZM24,1.148V-8.7l4.5,1.758A9.346,9.346,0,0,1,24,1.148ZM2.25,1.5A.752.752,0,0,1,1.5.75V-1.2A4.8,4.8,0,0,1,6.3-6c.919,0,1.833.75,4.2.75S13.781-6,14.7-6c.122,0,.234.028.352.037C15.019-6.342,15-6.727,15-7.125a2.665,2.665,0,0,1,.052-.338c-.117,0-.23-.037-.352-.037-1.345,0-1.992.75-4.2.75S7.65-7.5,6.3-7.5A6.3,6.3,0,0,0,0-1.2V.75A2.251,2.251,0,0,0,2.25,3h16.5a2.307,2.307,0,0,0,.9-.187A12.126,12.126,0,0,1,18.258,1.5ZM10.5-9a6,6,0,0,0,6-6,6,6,0,0,0-6-6,6,6,0,0,0-6,6A6,6,0,0,0,10.5-9Zm0-10.5A4.507,4.507,0,0,1,15-15a4.507,4.507,0,0,1-4.5,4.5A4.507,4.507,0,0,1,6-15,4.507,4.507,0,0,1,10.5-19.5Z" transform="translate(0 21)"/></svg>