<?xml version="1.0" encoding="utf-8"?>
<!-- Generator: Adobe Illustrator 24.1.3, SVG Export Plug-In . SVG Version: 6.00 Build 0)  -->
<svg version="1.1" id="Layer_1" xmlns="http://www.w3.org/2000/svg" xmlns:xlink="http://www.w3.org/1999/xlink" x="0px" y="0px"
	 viewBox="0 0 430 97" style="enable-background:new 0 0 430 97;" xml:space="preserve">
<style type="text/css">
	.st0{fill-rule:evenodd;clip-rule:evenodd;fill:#FFFFFF;}
</style>
<g>
	<path class="st0" d="M212.7,1.8c7.3,0,14.6-0.2,21.9,0.1c6.4,0.2,12.6,1.5,18.6,4.2c11.8,5.5,15.7,20.7,10,30.9
		c-2.2,4.1-1.9,5.5,1.3,8.7c10.2,9.9,12.1,25.3,4.1,36.1c-5.2,7-12.7,10.5-21,12.1c-4.7,0.9-9.5,1.4-14.2,1.8
		c-3.9,0.3-6.4-2-8.1-5.2c-1.1-2.1-2.1-4.2-3-6.4c-1.4-3.2-0.1-5.3,3.5-5.3c6.1,0,12.2,0,18.2-0.9c1.6-0.3,3.1-0.8,4.6-1.5
		c4-1.8,6.6-4.8,6.8-9.3c0.2-4.7-2.2-8-6.1-10.3c-3.8-2.2-8-2.7-12.2-2.8c-7.1-0.2-14.3-0.3-21.4-0.2c-5.3,0.1-8.8-2.2-10.8-7
		c-0.6-1.3-1.2-2.6-1.8-4c-1.6-3.6-0.4-5.5,3.5-5.6h8.3c7.1-0.1,14.3-0.2,21.4-0.4c2.5-0.1,4.8-0.7,7-1.9c5.6-3,5.9-10,0.7-13.6
		c-4.1-2.8-8.9-2.9-13.6-2.9c-10.6-0.2-21.3-0.1-31.9,0c-4.5,0-7.6-2-9.5-5.9c-1-2-1.9-3.9-2.7-6c-1.2-2.9,0.1-4.8,3.2-4.8
		C197.3,1.6,205,1.7,212.7,1.8"/>
	<path class="st0" d="M203.1,94.9c-6.7,0.3-11-2.8-13.7-8.8c-8.4-18.4-16.9-36.8-25.3-55.2c-0.2-0.4-0.3-0.7-0.5-1.1
		c-0.8-1.5-1.4-3.2-3.6-3.2c-2.1,0-2.8,1.7-3.5,3.3c-8.5,18.5-17.2,37-25.6,55.6c-4.3,9.6-10.5,9.8-17.7,9.3
		c-2.6-0.2-4.1-2.5-3.5-5.1c0.2-0.9,0.5-1.9,0.9-2.7c11.9-25.9,23.8-51.8,35.7-77.7c3-6.5,8.1-8.8,14.9-8.5
		c6.1,0.3,10.2,3.1,12.7,8.6c11.8,25.8,23.7,51.7,35.6,77.5c0.4,0.9,0.8,1.8,1,2.7c0.6,2.8-1,5-3.9,5.3
		C205.4,95,204.2,94.9,203.1,94.9"/>
	<path class="st0" d="M51.1,95c-6.8,0.1-11.1-2.8-13.7-8.5C25.6,60.8,13.8,35.2,2,9.5C1.6,8.6,1.2,7.7,0.9,6.8
		C0,3.9,1.1,1.6,4.1,1.1C9,0.3,13.8,0.5,17.9,4c1.6,1.4,2.7,3,3.6,4.8C29.9,27.2,38.4,45.6,46.8,64c0.9,1.9,1.5,4.3,4,4.4
		c2.6,0.1,3.2-2.4,4.1-4.3c8.4-18.3,16.9-36.6,25.3-55C84,0.8,90.9-0.1,97.6,0.9c3.4,0.5,4.5,3.4,2.8,7c-2.5,5.6-5.1,11.2-7.7,16.8
		c-9.4,20.4-18.8,40.7-28.1,61.1C61.8,92.1,57.4,95.3,51.1,95"/>
	<path class="st0" d="M308.3,48.6V8.4c0-4.5,2.1-6.4,6.5-6.6c7.5-0.4,9.3,1.8,9.2,9.1c-0.2,20.3-0.1,40.6-0.1,60.9
		c0,5.7,2.2,8,7.9,8c6.3,0,12.7,0.1,19,0c3.1,0,5.8,1,8,3c2.8,2.6,4.8,5.9,6.8,9.2c1.2,2,0.2,3.6-2.2,4c-0.6,0.1-1.3,0-1.9,0h-46.1
		c-4.9,0-7.2-2.2-7.2-7.1C308.3,75.4,308.3,62,308.3,48.6"/>
	<path class="st0" d="M372.1,48.6V8.4c0-4.7,2-6.4,6.7-6.7c7.9-0.5,9.1,2.8,9,9.1c-0.2,20.3-0.1,40.6-0.1,60.9c0,5.9,2.1,8,8.1,8h19
		c3,0,5.6,1,7.7,3c2.8,2.6,4.8,5.9,6.8,9.2c1.2,1.9,0.3,3.5-1.9,3.9c-0.7,0.1-1.5,0.1-2.2,0.1h-46.1c-4.9,0-7.1-2.2-7.1-7.1
		C372.1,75.4,372.1,62,372.1,48.6"/>
	<path class="st0" d="M82.9,95c-6.3,0.7-8.8-2.5-5.7-9c11.9-25.6,23.7-51.3,35.4-76.9c3.5-7.7,10.7-9.2,17.5-7.9
		c3.3,0.6,4.2,3.5,2.5,7.2c-3.8,8.4-7.7,16.8-11.6,25.1c-8,17.4-16,34.8-24,52.3C94.3,92,89.9,95.4,82.9,95"/>
	<path class="st0" d="M280,48.8V8.6c0-4.8,2-6.8,6.8-6.8h3.2c3.1,0.1,5.4,2.2,5.7,5.2c0.1,0.7,0,1.5,0,2.2v78.7c0,6.2-1.8,8-7.9,8
		h-1.2c-4.1,0-6.5-2.4-6.5-6.5C280,75.9,280,62.3,280,48.8"/>
</g>
</svg>
