<svg viewBox="0 0 430 97" xmlns="http://www.w3.org/2000/svg"><g fill="#00AEF1" fill-rule="evenodd"><path d="m212.7 1.8c7.3 0 14.6-.2 21.9.1 6.4.2 12.6 1.5 18.6 4.2 11.8 5.5 15.7 20.7 10 30.9-2.2 4.1-1.9 5.5 1.3 8.7 10.2 9.9 12.1 25.3 4.1 36.1-5.2 7-12.7 10.5-21 12.1-4.7.9-9.5 1.4-14.2 1.8-3.9.3-6.4-2-8.1-5.2-1.1-2.1-2.1-4.2-3-6.4-1.4-3.2-.1-5.3 3.5-5.3 6.1 0 12.2 0 18.2-.9 1.6-.3 3.1-.8 4.6-1.5 4-1.8 6.6-4.8 6.8-9.3.2-4.7-2.2-8-6.1-10.3-3.8-2.2-8-2.7-12.2-2.8-7.1-.2-14.3-.3-21.4-.2-5.3.1-8.8-2.2-10.8-7-.6-1.3-1.2-2.6-1.8-4-1.6-3.6-.4-5.5 3.5-5.6h8.3c7.1-.1 14.3-.2 21.4-.4 2.5-.1 4.8-.7 7-1.9 5.6-3 5.9-10 .7-13.6-4.1-2.8-8.9-2.9-13.6-2.9-10.6-.2-21.3-.1-31.9 0-4.5 0-7.6-2-9.5-5.9-1-2-1.9-3.9-2.7-6-1.2-2.9.1-4.8 3.2-4.8 7.8-.1 15.5 0 23.2.1"/><path d="m203.1 94.9c-6.7.3-11-2.8-13.7-8.8-8.4-18.4-16.9-36.8-25.3-55.2-.2-.4-.3-.7-.5-1.1-.8-1.5-1.4-3.2-3.6-3.2-2.1 0-2.8 1.7-3.5 3.3-8.5 18.5-17.2 37-25.6 55.6-4.3 9.6-10.5 9.8-17.7 9.3-2.6-.2-4.1-2.5-3.5-5.1.2-.9.5-1.9.9-2.7 11.9-25.9 23.8-51.8 35.7-77.7 3-6.5 8.1-8.8 14.9-8.5 6.1.3 10.2 3.1 12.7 8.6 11.8 25.8 23.7 51.7 35.6 77.5.4.9.8 1.8 1 2.7.6 2.8-1 5-3.9 5.3-1.2.1-2.4 0-3.5 0"/><path d="m51.1 95c-6.8.1-11.1-2.8-13.7-8.5-11.8-25.7-23.6-51.3-35.4-77-.4-.9-.8-1.8-1.1-2.7-.9-2.9.2-5.2 3.2-5.7 4.9-.8 9.7-.6 13.8 2.9 1.6 1.4 2.7 3 3.6 4.8 8.4 18.4 16.9 36.8 25.3 55.2.9 1.9 1.5 4.3 4 4.4 2.6.1 3.2-2.4 4.1-4.3 8.4-18.3 16.9-36.6 25.3-55 3.8-8.3 10.7-9.2 17.4-8.2 3.4.5 4.5 3.4 2.8 7-2.5 5.6-5.1 11.2-7.7 16.8-9.4 20.4-18.8 40.7-28.1 61.1-2.8 6.3-7.2 9.5-13.5 9.2"/><path d="m308.3 48.6v-40.2c0-4.5 2.1-6.4 6.5-6.6 7.5-.4 9.3 1.8 9.2 9.1-.2 20.3-.1 40.6-.1 60.9 0 5.7 2.2 8 7.9 8 6.3 0 12.7.1 19 0 3.1 0 5.8 1 8 3 2.8 2.6 4.8 5.9 6.8 9.2 1.2 2 .2 3.6-2.2 4-.6.1-1.3 0-1.9 0h-46.1c-4.9 0-7.2-2.2-7.2-7.1.1-13.5.1-26.9.1-40.3"/><path d="m372.1 48.6v-40.2c0-4.7 2-6.4 6.7-6.7 7.9-.5 9.1 2.8 9 9.1-.2 20.3-.1 40.6-.1 60.9 0 5.9 2.1 8 8.1 8h19c3 0 5.6 1 7.7 3 2.8 2.6 4.8 5.9 6.8 9.2 1.2 1.9.3 3.5-1.9 3.9-.7.1-1.5.1-2.2.1h-46.1c-4.9 0-7.1-2.2-7.1-7.1.1-13.4.1-26.8.1-40.2"/><path d="m82.9 95c-6.3.7-8.8-2.5-5.7-9 11.9-25.6 23.7-51.3 35.4-76.9 3.5-7.7 10.7-9.2 17.5-7.9 3.3.6 4.2 3.5 2.5 7.2-3.8 8.4-7.7 16.8-11.6 25.1-8 17.4-16 34.8-24 52.3-2.7 6.2-7.1 9.6-14.1 9.2"/><path d="m280 48.8v-40.2c0-4.8 2-6.8 6.8-6.8h3.2c3.1.1 5.4 2.2 5.7 5.2.1.7 0 1.5 0 2.2v78.7c0 6.2-1.8 8-7.9 8h-1.2c-4.1 0-6.5-2.4-6.5-6.5-.1-13.5-.1-27.1-.1-40.6"/></g></svg>